<svg width="300" height="300" viewBox="0 0 300 300" fill="none" xmlns="http://www.w3.org/2000/svg">
<g clip-path="url(#clip0_902_198)">
<path d="M267.677 197.694H32.3227C14.4997 197.694 0 212.196 0 230.019V267.677C0 285.5 14.4997 300 32.3227 300H267.677C285.5 300 300 285.5 300 267.677V230.019C300 212.196 285.5 197.694 267.677 197.694Z" fill="black"/>
<path d="M203.636 180.116H267.677C270.314 180.116 272.905 180.327 275.431 180.723C271.822 168.839 259.162 160.039 244.139 160.039H234.727C219.962 160.039 207.486 168.544 203.636 180.116Z" fill="black"/>
<path d="M150 130.547C185.992 130.547 215.273 101.264 215.273 65.2748C215.273 29.2809 185.992 0 150 0C114.008 0 84.7275 29.2809 84.7275 65.2725C84.7275 101.264 114.008 130.547 150 130.547Z" fill="black"/>
<path d="M117.678 141.559V180.116H182.323V141.557C172.387 145.784 161.463 148.125 150 148.125C138.538 148.125 127.613 145.784 117.678 141.559Z" fill="black"/>
</g>
<defs>
<clipPath id="clip0_902_198">
<rect width="300" height="300" fill="white"/>
</clipPath>
</defs>
</svg>
