<?xml version="1.0" encoding="utf-8"?>
<!-- Generator: Adobe Illustrator 22.1.0, SVG Export Plug-In . SVG Version: 6.00 Build 0)  -->
<svg version="1.1" id="Layer_1" xmlns="http://www.w3.org/2000/svg" xmlns:xlink="http://www.w3.org/1999/xlink" x="0px" y="0px"
	 viewBox="0 0 50 50" style="enable-background:new 0 0 50 50;" xml:space="preserve">
<style type="text/css">
	.st0{fill:none;}
</style>
<rect x="3.3" y="11.8" transform="matrix(0.7434 -0.6688 0.6688 0.7434 -10.3227 23.1661)" class="st0" width="43.4" height="26.5"/>
<g>
	<path d="M25,22.9c-1.1,0-2.1,1-2.1,2.1c0,1.1,1.1,2.1,2.1,2.1c1.1,0,2.1-1.1,2.1-2.1S26.1,22.9,25,22.9z M25,22.9
		c-1.1,0-2.1,1-2.1,2.1c0,1.1,1.1,2.1,2.1,2.1c1.1,0,2.1-1.1,2.1-2.1S26.1,22.9,25,22.9z M25,22.9c-1.1,0-2.1,1-2.1,2.1
		c0,1.1,1.1,2.1,2.1,2.1c1.1,0,2.1-1.1,2.1-2.1S26.1,22.9,25,22.9z M25,22.9c-1.1,0-2.1,1-2.1,2.1c0,1.1,1.1,2.1,2.1,2.1
		c1.1,0,2.1-1.1,2.1-2.1S26.1,22.9,25,22.9z M25,22.9c-1.1,0-2.1,1-2.1,2.1c0,1.1,1.1,2.1,2.1,2.1c1.1,0,2.1-1.1,2.1-2.1
		S26.1,22.9,25,22.9z M25,22.9c-1.1,0-2.1,1-2.1,2.1c0,1.1,1.1,2.1,2.1,2.1c1.1,0,2.1-1.1,2.1-2.1S26.1,22.9,25,22.9z M25,22.9
		c-1.1,0-2.1,1-2.1,2.1c0,1.1,1.1,2.1,2.1,2.1c1.1,0,2.1-1.1,2.1-2.1S26.1,22.9,25,22.9z M25,22.9c-1.1,0-2.1,1-2.1,2.1
		c0,1.1,1.1,2.1,2.1,2.1c1.1,0,2.1-1.1,2.1-2.1S26.1,22.9,25,22.9z M25,22.9c-1.1,0-2.1,1-2.1,2.1c0,1.1,1.1,2.1,2.1,2.1
		c1.1,0,2.1-1.1,2.1-2.1S26.1,22.9,25,22.9z M25,22.9c-1.1,0-2.1,1-2.1,2.1c0,1.1,1.1,2.1,2.1,2.1c1.1,0,2.1-1.1,2.1-2.1
		S26.1,22.9,25,22.9z M25,22.9c-1.1,0-2.1,1-2.1,2.1c0,1.1,1.1,2.1,2.1,2.1c1.1,0,2.1-1.1,2.1-2.1S26.1,22.9,25,22.9z M25,22.9
		c-1.1,0-2.1,1-2.1,2.1c0,1.1,1.1,2.1,2.1,2.1c1.1,0,2.1-1.1,2.1-2.1S26.1,22.9,25,22.9z M25,22.9c-1.1,0-2.1,1-2.1,2.1
		c0,1.1,1.1,2.1,2.1,2.1c1.1,0,2.1-1.1,2.1-2.1S26.1,22.9,25,22.9z M25,22.9c-1.1,0-2.1,1-2.1,2.1c0,1.1,1.1,2.1,2.1,2.1
		c1.1,0,2.1-1.1,2.1-2.1S26.1,22.9,25,22.9z M25,22.9c-1.1,0-2.1,1-2.1,2.1c0,1.1,1.1,2.1,2.1,2.1c1.1,0,2.1-1.1,2.1-2.1
		S26.1,22.9,25,22.9z M25,22.9c-1.1,0-2.1,1-2.1,2.1c0,1.1,1.1,2.1,2.1,2.1c1.1,0,2.1-1.1,2.1-2.1S26.1,22.9,25,22.9z M25,22.9
		c-1.1,0-2.1,1-2.1,2.1c0,1.1,1.1,2.1,2.1,2.1c1.1,0,2.1-1.1,2.1-2.1S26.1,22.9,25,22.9z M47.2,14.7c-0.7-1.4-1.2-2.4-2.1-3.7
		c-0.2-0.3-0.4-0.6-0.6-0.8L43,8.5c-0.2-0.2-0.2-0.2-0.3-0.4L41.5,7c-0.3-0.3-0.4-0.4-0.8-0.7c-1.7-1.3-3.3-2.6-5.3-3.4
		c-4.3-1.8-6.2-2.3-11.3-2.3c-4.7,0-10.5,2.1-14,5C9.8,5.8,9.6,6.1,9.3,6.3L5,10.9c-0.4,0.6-0.8,1.1-1.1,1.8
		c-0.2,0.4-0.3,0.6-0.5,0.9l-0.5,1c-1.3,2.7-2.3,6.3-2.3,9.5c0,5,0.6,8.2,2.7,12.2c1.1,2,2.7,4.3,4.4,6C8,42.6,8.1,42.7,8.5,43
		c2.5,2.1,2.5,2.3,6.1,4.1c2.2,1.1,6.2,2.3,9.5,2.3c4.4,0,7.6-0.5,11.2-2.2l1-0.5c1.9-1,2.8-1.7,4.4-2.9c0.3-0.3,0.5-0.4,0.8-0.7
		c0.8-0.7,0.6-0.4,1.5-1.5c2.1-2.5,2.5-2.9,4.1-6.1c1.4-2.8,2.2-6.2,2.3-9.7v-1.5C49.3,20.8,48.6,17.5,47.2,14.7z M41.3,16.8
		c1.4,0,1.9,1.9,0.7,2.6l-3.9,1.5c-0.9,0-1.6-0.5-1.6-1.4c0-1.2,1.1-1.4,2-1.7C39,17.6,40.8,16.8,41.3,16.8z M36.3,11.7
		c1.6-1.6,2.7-0.2,2.7,0.7c0,0.9-1.1,1.8-1.6,2.3c-0.5,0.5-1.5,1.7-2.3,1.7c-0.8,0-1.5-0.7-1.5-1.4C33.7,14,35.5,12.5,36.3,11.7z
		 M30,9.3c0.4-0.9,0.7-2,1.8-2c1,0,1.4,0.6,1.4,1.5c0,0.5-0.8,2.2-1,2.7c-0.3,0.6-0.7,2-1.7,2c-0.8,0-1.5-0.6-1.5-1.6
		C29,11.5,29.9,9.7,30,9.3z M23.6,7.1c0-1.9,2.7-2,2.7,0.1v3.4c0,1.9-2.7,1.9-2.7,0V7.1z M19.3,8.1l1.5,3.5c0.3,1-0.4,1.8-1.3,1.8
		c-1.3,0-1.4-1.1-1.8-2c-0.2-0.4-1.1-2.3-1.1-2.7C16.6,7.2,18.5,6.6,19.3,8.1z M12.3,10.9c0.9,0,1.8,1.1,2.3,1.6
		c0.9,0.9,2.4,2,1.3,3.2c-1.3,1.4-2.8-0.7-4.2-2.1c-0.3-0.3-0.8-0.8-0.8-1.3C10.9,11.5,11.6,10.9,12.3,10.9z M8.5,16.8
		c0.5,0,2.2,0.8,2.7,1c0.5,0.2,1.6,0.5,1.9,1c0.7,1,0,1.9-0.8,2.2c-0.7,0.2-3.1-0.9-3.9-1.2c-0.7-0.3-1.2-0.5-1.2-1.4
		C7.2,17.3,8,16.8,8.5,16.8z M5.7,25c0-0.8,0.6-1.4,1.6-1.4h3.4c1.9,0,1.9,2.7,0,2.7H7.1C6.3,26.4,5.7,25.8,5.7,25z M7.2,32
		c0-1.2,1-1.4,2-1.8c1.3-0.5,2.8-1.6,3.7-0.7c0.2,0.2,0.5,0.8,0.5,1c0,1.1-1.1,1.4-1.9,1.7c-0.4,0.2-2.3,1.1-2.6,1.1
		C8.2,33.3,7.2,33.2,7.2,32z M14.7,37.3c-0.5,0.5-1.5,1.7-2.3,1.7c-1.1,0-2.2-1.2-0.8-2.7c1.5-1.6,2.9-3.5,4.2-2.3
		C17.1,35.2,15.5,36.5,14.7,37.3z M19.3,42.3c-0.2,0.4-0.7,0.6-1.2,0.6c-0.7,0-1.4-0.6-1.4-1.4c0-0.4,1.3-3.7,1.5-4.1
		c0.7-1.1,2.6-1,2.6,0.7C20.8,38.7,19.5,41.8,19.3,42.3z M26.4,42.9c0,1.9-2.7,1.9-2.7,0v-3.5c0-1.9,2.7-1.9,2.7,0V42.9z M26.2,34.8
		c-0.4,1-2.1,1-2.5,0c-0.2-0.6-0.1-4.4-0.1-5.1c-1.5-0.3-3-1.8-3.3-3.3c-0.8,0-4.6,0.1-5.1-0.1c-0.4-0.2-0.7-0.6-0.7-1
		c0-1.7,0.9-1.6,2.3-1.6h3.5c0.3-1.5,1.8-3,3.3-3.3c0-0.8-0.1-4.6,0.1-5.1c0.4-1,2.1-1,2.5,0c0.2,0.6,0.1,4.4,0.1,5.1
		c1.5,0.3,3,1.8,3.3,3.3c0.8,0,4.6-0.1,5.1,0.1c1,0.4,1,2.1,0,2.5c-0.6,0.2-4.4,0.1-5.1,0.1c-0.3,1.5-1.8,3-3.3,3.3
		C26.4,30.5,26.5,34.3,26.2,34.8z M31.1,42.7c-0.4-0.2-0.4-0.4-0.6-0.8c-0.3-0.6-1.4-3.5-1.4-3.8c0-1.5,2-2,2.7-0.5
		c0.2,0.4,1.5,3.6,1.5,3.8C33.2,42.5,32.2,43.3,31.1,42.7z M37.7,39.1c-0.9,0-2.3-1.7-3.1-2.5c-0.3-0.3-0.9-0.9-0.9-1.4
		c0-0.8,0.7-1.5,1.4-1.5c0.9,0,1.8,1.1,2.3,1.6c0.5,0.5,1.7,1.5,1.7,2.3C39.1,38.4,38.5,39.1,37.7,39.1z M41.1,33.3
		c-0.3,0-2.1-0.9-2.6-1c-0.8-0.3-2-0.7-2-1.7c0-0.5,0.1-0.7,0.4-1c0.5-0.5,0.5-0.5,1.2-0.5c0.1,0,3.8,1.3,4.3,2
		C42.8,31.6,42.8,33.3,41.1,33.3z M42.9,26.4h-3.5c-0.8,0-1.5-0.6-1.5-1.4c0-0.8,0.6-1.4,1.6-1.4h3.6C44.6,23.6,44.9,26.4,42.9,26.4
		z M25,22.9c-1.1,0-2.1,1-2.1,2.1c0,1.1,1.1,2.1,2.1,2.1c1.1,0,2.1-1.1,2.1-2.1S26.1,22.9,25,22.9z M25,22.9c-1.1,0-2.1,1-2.1,2.1
		c0,1.1,1.1,2.1,2.1,2.1c1.1,0,2.1-1.1,2.1-2.1S26.1,22.9,25,22.9z M25,22.9c-1.1,0-2.1,1-2.1,2.1c0,1.1,1.1,2.1,2.1,2.1
		c1.1,0,2.1-1.1,2.1-2.1S26.1,22.9,25,22.9z M25,22.9c-1.1,0-2.1,1-2.1,2.1c0,1.1,1.1,2.1,2.1,2.1c1.1,0,2.1-1.1,2.1-2.1
		S26.1,22.9,25,22.9z M25,22.9c-1.1,0-2.1,1-2.1,2.1c0,1.1,1.1,2.1,2.1,2.1c1.1,0,2.1-1.1,2.1-2.1S26.1,22.9,25,22.9z M25,22.9
		c-1.1,0-2.1,1-2.1,2.1c0,1.1,1.1,2.1,2.1,2.1c1.1,0,2.1-1.1,2.1-2.1S26.1,22.9,25,22.9z M25,22.9c-1.1,0-2.1,1-2.1,2.1
		c0,1.1,1.1,2.1,2.1,2.1c1.1,0,2.1-1.1,2.1-2.1S26.1,22.9,25,22.9z M25,22.9c-1.1,0-2.1,1-2.1,2.1c0,1.1,1.1,2.1,2.1,2.1
		c1.1,0,2.1-1.1,2.1-2.1S26.1,22.9,25,22.9z M25,22.9c-1.1,0-2.1,1-2.1,2.1c0,1.1,1.1,2.1,2.1,2.1c1.1,0,2.1-1.1,2.1-2.1
		S26.1,22.9,25,22.9z M25,22.9c-1.1,0-2.1,1-2.1,2.1c0,1.1,1.1,2.1,2.1,2.1c1.1,0,2.1-1.1,2.1-2.1S26.1,22.9,25,22.9z M25,22.9
		c-1.1,0-2.1,1-2.1,2.1c0,1.1,1.1,2.1,2.1,2.1c1.1,0,2.1-1.1,2.1-2.1S26.1,22.9,25,22.9z M25,22.9c-1.1,0-2.1,1-2.1,2.1
		c0,1.1,1.1,2.1,2.1,2.1c1.1,0,2.1-1.1,2.1-2.1S26.1,22.9,25,22.9z M25,22.9c-1.1,0-2.1,1-2.1,2.1c0,1.1,1.1,2.1,2.1,2.1
		c1.1,0,2.1-1.1,2.1-2.1S26.1,22.9,25,22.9z M25,22.9c-1.1,0-2.1,1-2.1,2.1c0,1.1,1.1,2.1,2.1,2.1c1.1,0,2.1-1.1,2.1-2.1
		S26.1,22.9,25,22.9z M25,22.9c-1.1,0-2.1,1-2.1,2.1c0,1.1,1.1,2.1,2.1,2.1c1.1,0,2.1-1.1,2.1-2.1S26.1,22.9,25,22.9z M25,22.9
		c-1.1,0-2.1,1-2.1,2.1c0,1.1,1.1,2.1,2.1,2.1c1.1,0,2.1-1.1,2.1-2.1S26.1,22.9,25,22.9z M25,22.9c-1.1,0-2.1,1-2.1,2.1
		c0,1.1,1.1,2.1,2.1,2.1c1.1,0,2.1-1.1,2.1-2.1S26.1,22.9,25,22.9z"/>
	<circle cx="25" cy="25" r="2.1"/>
</g>
</svg>
