<?xml version="1.0" encoding="utf-8"?>
<!-- Generator: Adobe Illustrator 21.0.0, SVG Export Plug-In . SVG Version: 6.00 Build 0)  -->
<svg version="1.1" id="Layer_1" xmlns="http://www.w3.org/2000/svg" xmlns:xlink="http://www.w3.org/1999/xlink" x="0px" y="0px"
	 viewBox="0 0 50 50" style="enable-background:new 0 0 50 50;" xml:space="preserve">
<g>
	<path d="M15.9,28c-0.8-0.8-1.5-1.5-2-2.4c-0.1,0-0.1,0-0.2-0.1c-2.4-0.8-4.5-2.2-6.1-4.1c-2.9-3.4-4.2-8-3.2-12.3
		C5,6.7,7.2,4.5,10,4.8L9.6,1.2c-0.9-0.1-1.7,0-2.5,0.2C4,2.4,1.6,5.2,1,8.3C-0.8,16.4,4.6,27,13.9,27.9C14.5,28,15.2,28,15.9,28z"
		/>
	<path d="M49,8.3c-0.7-3.1-3-5.9-6.2-6.9c-0.7-0.2-1.6-0.3-2.5-0.2L40,4.8c2.8-0.3,4.9,1.9,5.6,4.4c1.1,4.3-0.3,8.9-3.2,12.3
		c-1.6,1.9-3.7,3.3-6.1,4.1c-0.1,0-0.1,0-0.2,0.1c-0.6,0.8-1.3,1.6-2,2.4c0.7,0,1.4,0,2-0.1C45.4,27,50.8,16.4,49,8.3z"/>
	<path d="M35,39.7H15c-1,0-1.8,0.7-1.9,1.7l-0.9,8.4h25.6l-0.9-8.4C36.8,40.4,36,39.7,35,39.7z"/>
	<path d="M12.1,19.4c0.4,4.3,3.2,7.5,6.5,9.9c1.6,1.2,1.7,3.6,0.7,5.3c-0.3,0.5-0.8,0.7-1.3,0.7h0c-0.6,0-1.2,0.5-1.2,1.2v2.3h16.6
		v-2.3c0-0.6-0.5-1.2-1.2-1.2c-0.5,0-1-0.3-1.3-0.7c-1.1-1.7-1-4.1,0.7-5.3c3.2-2.5,6-5.6,6.5-9.9l1.8-18.3c0-0.2,0-0.8,0-1H10.2
		c0,0.1,0,0.8,0,1L12.1,19.4z M22.3,9.9L25,4.5l2.7,5.4l6,0.9l-4.3,4.2l1,6L25,18.2L19.6,21l1-6l-4.3-4.2L22.3,9.9z"/>
</g>
</svg>
