<?xml version="1.0" encoding="utf-8"?>
<!-- Generator: Adobe Illustrator 22.1.0, SVG Export Plug-In . SVG Version: 6.00 Build 0)  -->
<svg version="1.1" id="Layer_1" xmlns="http://www.w3.org/2000/svg" xmlns:xlink="http://www.w3.org/1999/xlink" x="0px" y="0px"
	 viewBox="0 0 50 50" style="enable-background:new 0 0 50 50;" xml:space="preserve">
<g>
	<path d="M33.3,29.7c-4.5-4.5-11.8-4.7-16.6,0.2c-2.2,2.2-3.5,5.1-3.5,8.3c0,1.6,0.5,3.6,1,4.7c0.3,0.7,0.6,1.2,1,1.9
		c0.4,0.6,0.8,1.2,1.3,1.6c2.6,2.6,5.1,3.6,9,3.6c3.1,0,5.7-1.4,7.9-3.4c0.2-0.2,0.4-0.5,0.7-0.7l1.2-1.6c1.3-2.4,1.6-3.5,1.6-6.5
		C36.8,34.6,35.3,31.7,33.3,29.7z M27.9,44.3c-0.3,0.3-1.1,0.8-1.5,0.9c0,0.7,0.1,1.6-0.1,2.2c-0.4,1.4-2.3,1.4-2.7,0.1
		c-0.1-0.4-0.1-1.7-0.1-2.3c-1.7-0.4-3.8-3.1-2.1-4.2c0.4-0.2,1-0.2,1.4-0.1c0.9,0.4,0.6,1.6,2.1,1.6c2,0,2-2.8,0.1-3
		c-1-0.1-1.6-0.2-2.3-0.6c-2.3-1.3-2.9-4.4-1.3-6.4c0.8-1,1.3-1,2.1-1.5c0-1-0.4-3.2,1.4-3.2c1.8,0,1.4,2.2,1.4,3.2
		c1,0.7,2.7,1.3,2.7,3.2c0,1-1.8,1.9-2.7,0.4c-1-1.7-2.9-0.7-2.9,0.4c0,0.8,0.4,1.5,1,1.6c0.8,0.2,1.3,0.1,2,0.3
		C29.7,38.2,30.3,42.2,27.9,44.3z"/>
	<path d="M44.2,25.7v16.8c0,0.6-0.3,1-0.6,1.3c-0.4,0.3-0.8,0.3-1.5,0.3c-1.2,0-2.4,0-3.6,0c0-0.3,0.3-1,0.4-1.4
		c0.4-1.3,0.8-3,0.8-4.5c0-6.3-4.3-12-9.9-13.9c-4.1-1.4-8.5-1-12.2,1.2c-1.4,0.9-1.6,1.1-2.7,2.1l-0.8,0.8
		c-0.6,0.6-1.5,1.9-1.9,2.6c-3.7,6.9-0.7,12.1-0.6,13.1c-1.2,0-2.5,0-3.7,0c-1.1,0-2.1-0.3-2.1-1.6V25.7c0-0.3,0.3-0.4,0.6-0.5
		l17.4-13.9c1.5-1.2,1-1.2,2.5,0l3.6,2.9c0.3,0.2,0.4,0.3,0.6,0.5l3,2.4c0.4,0.3,0.8,0.6,1.2,0.9l8.4,6.7
		C43.9,25.4,44.2,25.4,44.2,25.7z"/>
	<path d="M38.2,4.5c0-0.8,0.7-1.6,1.4-1.6h3.1c0.9,0,1.5,0.8,1.5,1.4v6.1c0,0.6-0.4,0.1-0.7-0.1l-5-4.1C38.1,5.9,38.2,5.9,38.2,4.5z
		"/>
	<path d="M50,20.2v0.7c-0.1,0.7-0.4,1.3-0.9,1.8c-2,2-4.1,0-5.2-0.9L25,6.7l-1.4,1.1c-0.4,0.3-0.9,0.7-1.3,1.1
		c-0.9,0.8-1.8,1.4-2.7,2.2c-0.9,0.7-1.8,1.4-2.7,2.2l-9.4,7.6c-1.9,1.5-4.2,4.1-6.4,1.9C0,21.8,0,21.3,0,20.2
		c0-1.5,1.5-2.3,2.5-3.2c0.5-0.4,1-0.8,1.6-1.2l6.2-5c3-2.2,6.5-5.3,9.4-7.4c0.6-0.4,1-0.8,1.6-1.2c0.5-0.4,1-0.8,1.6-1.2
		c0.7-0.5,1.3-0.8,1.8-0.9h0.7c1.2,0.2,2.3,1.2,3.5,2.2l20.2,16.2C49.6,18.8,49.9,19.5,50,20.2z"/>
	<g>
		<path d="M44.2,25.7v16.8c0,0.6-0.3,1-0.6,1.3c-0.4,0.3-0.8,0.3-1.5,0.3c-1.2,0-2.4,0-3.6,0c0-0.3,0.3-1,0.4-1.4
			c0.4-1.3,0.8-3,0.8-4.5c0-6.3-4.3-12-9.9-13.9c-4.1-1.4-8.5-1-12.2,1.2c-1.4,0.9-1.6,1.1-2.7,2.1l-0.8,0.8
			c-0.6,0.6-1.5,1.9-1.9,2.6c-3.7,6.9-0.7,12.1-0.6,13.1c-1.2,0-2.5,0-3.7,0c-1.1,0-2.1-0.3-2.1-1.6V25.7c0-0.3,0.3-0.4,0.6-0.5
			l17.4-13.9c1.5-1.2,1-1.2,2.5,0l3.6,2.9c0.3,0.2,0.4,0.3,0.6,0.5l3,2.4c0.4,0.3,0.8,0.6,1.2,0.9l8.4,6.7
			C43.9,25.4,44.2,25.4,44.2,25.7z"/>
		<path d="M50,20.2v0.7c-0.1,0.7-0.4,1.3-0.9,1.8c-2,2-4.1,0-5.2-0.9L25,6.7l-1.4,1.1c-0.4,0.3-0.9,0.7-1.3,1.1
			c-0.9,0.8-1.8,1.4-2.7,2.2c-0.9,0.7-1.8,1.4-2.7,2.2l-9.4,7.6c-1.9,1.5-4.2,4.1-6.4,1.9C0,21.8,0,21.3,0,20.2
			c0-1.5,1.5-2.3,2.5-3.2c0.5-0.4,1-0.8,1.6-1.2l6.2-5c3-2.2,6.5-5.3,9.4-7.4c0.6-0.4,1-0.8,1.6-1.2c0.5-0.4,1-0.8,1.6-1.2
			c0.7-0.5,1.3-0.8,1.8-0.9h0.7c1.2,0.2,2.3,1.2,3.5,2.2l20.2,16.2C49.6,18.8,49.9,19.5,50,20.2z"/>
		<path d="M33.3,29.7c-4.5-4.5-11.8-4.7-16.6,0.2c-2.2,2.2-3.5,5.1-3.5,8.3c0,1.6,0.5,3.6,1,4.7c0.3,0.7,0.6,1.2,1,1.9
			c0.4,0.6,0.8,1.2,1.3,1.6c2.6,2.6,5.1,3.6,9,3.6c3.1,0,5.7-1.4,7.9-3.4c0.2-0.2,0.4-0.5,0.7-0.7l1.2-1.6c1.3-2.4,1.6-3.5,1.6-6.5
			C36.8,34.6,35.3,31.7,33.3,29.7z M27.9,44.3c-0.3,0.3-1.1,0.8-1.5,0.9c0,0.7,0.1,1.6-0.1,2.2c-0.4,1.4-2.3,1.4-2.7,0.1
			c-0.1-0.4-0.1-1.7-0.1-2.3c-1.7-0.4-3.8-3.1-2.1-4.2c0.4-0.2,1-0.2,1.4-0.1c0.9,0.4,0.6,1.6,2.1,1.6c2,0,2-2.8,0.1-3
			c-1-0.1-1.6-0.2-2.3-0.6c-2.3-1.3-2.9-4.4-1.3-6.4c0.8-1,1.3-1,2.1-1.5c0-1-0.4-3.2,1.4-3.2c1.8,0,1.4,2.2,1.4,3.2
			c1,0.7,2.7,1.3,2.7,3.2c0,1-1.8,1.9-2.7,0.4c-1-1.7-2.9-0.7-2.9,0.4c0,0.8,0.4,1.5,1,1.6c0.8,0.2,1.3,0.1,2,0.3
			C29.7,38.2,30.3,42.2,27.9,44.3z"/>
		<path d="M44.2,4.3v6.1c0,0.6-0.4,0.1-0.7-0.1l-5-4.1c-0.4-0.3-0.3-0.3-0.3-1.7c0-0.8,0.7-1.6,1.4-1.6h3.1
			C43.6,2.9,44.2,3.7,44.2,4.3z"/>
	</g>
</g>
</svg>
