<svg width="300" height="300" viewBox="0 0 300 300" fill="none" xmlns="http://www.w3.org/2000/svg">
<g clip-path="url(#clip0_901_198)">
<mask id="mask0_901_198" style="mask-type:luminance" maskUnits="userSpaceOnUse" x="0" y="0" width="300" height="300">
<path d="M300 0H0V300H300V0Z" fill="white"/>
</mask>
<g mask="url(#mask0_901_198)">
<path d="M261.329 171.092H38.6701C24.1311 171.092 12.3027 182.921 12.3027 197.46V273.632C12.3027 288.171 24.1311 300 38.6701 300H261.329C275.868 300 287.696 288.171 287.696 273.632V197.46C287.696 182.92 275.868 171.092 261.329 171.092ZM83.1831 273.581C76.4652 273.618 71.882 273.636 68.7255 273.636C62.1829 273.636 61.7645 273.564 61.1317 273.455C56.9117 272.732 53.8273 269.073 53.8273 264.792V206.247C53.8273 201.393 57.7625 197.458 62.6165 197.458C67.4704 197.458 71.4056 201.393 71.4056 206.247V256.049C74.9213 256.042 79.1096 256.025 83.0852 256.003H83.1356C87.9667 256.003 91.8966 259.905 91.9236 264.743C91.95 269.597 88.037 273.554 83.1831 273.581ZM124.153 264.841C124.153 269.695 120.218 273.631 115.364 273.631C110.51 273.631 106.575 269.695 106.575 264.841V206.247C106.575 201.393 110.51 197.458 115.364 197.458C120.218 197.458 124.153 201.393 124.153 206.247V264.841ZM197.597 209.125L178.465 266.715C178.458 266.735 178.452 266.755 178.445 266.776C177.06 270.847 173.241 273.601 168.94 273.63C168.917 273.631 168.894 273.631 168.872 273.631C164.599 273.631 160.776 270.934 159.344 266.903C159.337 266.883 159.33 266.864 159.323 266.844L139.289 209.129C137.697 204.544 140.124 199.536 144.71 197.944C149.296 196.354 154.304 198.78 155.895 203.365L168.717 240.302L180.915 203.584C182.445 198.977 187.419 196.482 192.027 198.013C196.633 199.544 199.127 204.519 197.597 209.125ZM244.352 226.755C249.206 226.755 253.142 230.69 253.142 235.544C253.142 240.398 249.206 244.333 244.352 244.333H230.273V256.052H246.173C251.027 256.052 254.962 259.988 254.962 264.841C254.962 269.695 251.027 273.631 246.173 273.631H221.484C216.63 273.631 212.695 269.695 212.695 264.841V206.247C212.695 201.393 216.63 197.458 221.484 197.458H246.173C251.027 197.458 254.962 201.393 254.962 206.247C254.962 211.101 251.027 215.036 246.173 215.036H230.273V226.755H244.352Z" fill="black"/>
<path d="M161.407 138.838L149.999 123.74L138.591 138.837C134.913 143.703 134.634 149.139 135.791 153.514H164.206C165.364 149.139 165.085 143.703 161.407 138.838Z" fill="black"/>
<path d="M124.568 128.239L142.988 103.864C144.649 101.665 147.245 100.373 150 100.373C152.755 100.373 155.35 101.665 157.011 103.864L175.433 128.24C180.998 135.605 183.263 144.683 182.119 153.514H215.005C227.046 137.527 231.927 117.291 227.647 97.6884C222.806 75.5157 207.374 61.0159 198.606 54.3461C195.884 52.2766 192.211 51.9725 189.187 53.5663C186.161 55.1606 184.337 58.3634 184.507 61.7782C184.728 66.2302 181.978 70.418 177.501 72.4471C175.734 73.2475 173.936 73.6026 172.256 73.6957C177.337 55.6546 176.712 39.8282 170.375 26.5402C161.044 6.97497 142.634 0.698937 141.856 0.441122C139.586 -0.307713 137.105 -0.0950164 134.991 1.02121C132.877 2.13743 131.306 4.07514 130.645 6.37321C130.559 6.6738 121.724 36.6653 97.2966 58.3464C84.9068 69.3445 76.5331 82.2013 73.0813 95.5268C71.3422 102.24 69.7215 112.827 71.8789 125.14C73.7059 135.565 77.8555 145.082 84.2189 153.514H117.882C116.737 144.683 119.002 135.605 124.568 128.239Z" fill="black"/>
</g>
</g>
<defs>
<clipPath id="clip0_901_198">
<rect width="300" height="300" fill="white"/>
</clipPath>
</defs>
</svg>
