<?xml version="1.0" encoding="utf-8"?>
<!-- Generator: Adobe Illustrator 22.1.0, SVG Export Plug-In . SVG Version: 6.00 Build 0)  -->
<svg version="1.1" id="Layer_1" xmlns="http://www.w3.org/2000/svg" xmlns:xlink="http://www.w3.org/1999/xlink" x="0px" y="0px"
	 viewBox="0 0 50 50" style="enable-background:new 0 0 50 50;" xml:space="preserve">
<g>
	<path d="M15.7,8.4c-0.5,0.1-0.9,0.2-1.4,0.2c0.2-0.8,2.1-2.7,2.7-3.3C19.6,2.7,23.4,1,27,0.3C27.8,0.1,28.7,0,29.6,0H31
		c0.6,0,1.2,0.1,1.8,0.1c0.5,0,1,0.2,1.5,0.2c-0.1,0.4-0.7,0.9-1,1.2l-5.4,5.4c-2.5,2.5-1.6,2.2-3.5,1.8C21.8,8,18.3,7.9,15.7,8.4z"
		/>
	<path d="M19.5,35.3c-2.2,0-2.2-3.4,0-3.4C21.8,31.9,21.8,35.3,19.5,35.3z"/>
	<path d="M17.8,27.3c0-0.3,0.3-0.9,0.4-1.1c0.5-0.6,1-0.5,1.7-0.5c0.6,0,1.3,0.8,1.3,1.4C21.2,29.8,17.8,29.4,17.8,27.3z"/>
	<path d="M29.6,25.8c-1.4-2.7-2.7-4-5.4-5.4c-4-2-9.3-1-12.4,2.1c-0.8,0.8-1.7,1.9-2.2,3.1c-0.4,0.9-0.4,0.8-0.7,1.9
		c-0.2,0.8-0.4,1.4-0.4,2.3c0,2.5,0.1,3.1,1.1,5.4c0.5,1.1,1.4,2.2,2.2,3c3,3,7.3,4,11.4,2.6c4.1-1.4,7.4-5.7,7.4-9.9
		C30.6,29,30.4,27.5,29.6,25.8z M19.6,38.2c-1.8,0-3.6-1.3-4.1-2.6c-0.5-1.3-0.6-2.4-0.1-3.7c0.3-0.7,0.5-0.8,0.8-1.4
		c-0.7-1-1.2-1.6-1.2-3.2c0-3.7,4.5-6.2,7.8-3.1l0.4,0.5c0.1,0.2,0.3,0.5,0.4,0.8c0.6,1.3,0.5,2.3,0.1,3.6c-0.2,0.6-0.5,0.9-0.8,1.4
		c0.1,0.4,0.4,0.6,0.8,1.4C25,34.7,22.8,38.1,19.6,38.2z"/>
	<path d="M34.5,17.9l-3-2.9c-0.7-0.5-2.2-1.5-2.9-1.9c-2.5-1.1-4.9-2.2-8.5-2.2c-4.5,0-8,1-11.7,3.5l-2,1.6c-1,0.9-2,2.1-2.8,3.1
		l-2.1,3.8C0.7,24.8,0,27.7,0,29.8c0,3.7,0.4,5.9,1.8,9c0.2,0.5,0.5,1,0.8,1.5c0.7,1.2,1.1,1.6,2,2.7c0.2,0.3,0.3,0.4,0.6,0.6
		c0.3,0.3,0.3,0.4,0.5,0.7l1.2,1.1c0.2,0.2,0.4,0.3,0.7,0.5C10.5,48.3,15,50,18.8,50c4.2,0,5.6-0.4,9.1-1.8c1.7-0.7,4.2-2.6,5.5-4
		c2.5-2.5,4.2-5.6,5.1-9.1C40,29.3,38.4,22.3,34.5,17.9z M32.2,36.1c-0.9,1.7-0.9,1.8-2,3.2c-2.5,3.1-6.6,5.1-10.6,5.1
		c-2,0-4.3-0.6-5.7-1.2c-0.8-0.4-1.5-0.8-2.2-1.3C6.3,38.4,4,30.7,6.8,24.8c1.6-3.4,3.5-5.3,7-7c3.4-1.7,8-1.7,11.4,0
		c0.8,0.4,1.5,0.8,2.2,1.3c2.8,1.8,4.9,5,5.7,8.3C33.8,30.2,33.5,33.7,32.2,36.1z"/>
	<path d="M39.9,21.2c-0.1-0.6-0.7-1.3-0.9-1.9c-0.8-1.5-2.4-3.5-3.6-4.7c-1.4-1.4-4.8-4.1-6.6-4.5c0.1-0.4,0.7-0.9,1-1.2
		c1.1-1.1,7.2-7.3,7.7-7.6c0.6,0.1,1.4,0.6,2,0.8c1.1,0.6,3.3,2.1,4.1,2.9c0.3,0.3,0.5,0.4,0.8,0.6L45,6.4c0.9,0.9,2.2,2.9,2.9,4.1
		c0.3,0.6,0.7,1.3,0.8,2c-0.4,0.5-1.6,1.7-2.2,2.2C45.9,15.4,40.4,21.1,39.9,21.2z"/>
	<path d="M50,20.4c0,3.7-1.7,8.2-4,11c-0.5,0.6-0.9,1.1-1.4,1.6l-1.5,1.5c-0.3,0.3-1.2,1.1-1.7,1.2c0-0.6,0.2-1.2,0.3-1.6
		c0.4-2.8,0.4-5.8-0.3-8.6c-0.4-1.7-0.4-1.2,0.7-2.4l6.6-6.6c0.3-0.3,0.5-0.7,1-0.8c0,0.5,0.1,1,0.2,1.5L50,20.4z"/>
	<g>
		<path d="M34.5,17.9l-3-2.9c-0.7-0.5-2.2-1.5-2.9-1.9c-2.5-1.1-4.9-2.2-8.5-2.2c-4.5,0-8,1-11.7,3.5l-2,1.6c-1,0.9-2,2.1-2.8,3.1
			l-2.1,3.8C0.7,24.8,0,27.7,0,29.8c0,3.7,0.4,5.9,1.8,9c0.2,0.5,0.5,1,0.8,1.5c0.7,1.2,1.1,1.6,2,2.7c0.2,0.3,0.3,0.4,0.6,0.6
			c0.3,0.3,0.3,0.4,0.5,0.7l1.2,1.1c0.2,0.2,0.4,0.3,0.7,0.5C10.5,48.3,15,50,18.8,50c4.2,0,5.6-0.4,9.1-1.8c1.7-0.7,4.2-2.6,5.5-4
			c2.5-2.5,4.2-5.6,5.1-9.1C40,29.3,38.4,22.3,34.5,17.9z M32.2,36.1c-0.9,1.7-0.9,1.8-2,3.2c-2.5,3.1-6.6,5.1-10.6,5.1
			c-2,0-4.3-0.6-5.7-1.2c-0.8-0.4-1.5-0.8-2.2-1.3C6.3,38.4,4,30.7,6.8,24.8c1.6-3.4,3.5-5.3,7-7c3.4-1.7,8-1.7,11.4,0
			c0.8,0.4,1.5,0.8,2.2,1.3c2.8,1.8,4.9,5,5.7,8.3C33.8,30.2,33.5,33.7,32.2,36.1z"/>
		<path d="M29.6,25.8c-1.4-2.7-2.7-4-5.4-5.4c-4-2-9.3-1-12.4,2.1c-0.8,0.8-1.7,1.9-2.2,3.1c-0.4,0.9-0.4,0.8-0.7,1.9
			c-0.2,0.8-0.4,1.4-0.4,2.3c0,2.5,0.1,3.1,1.1,5.4c0.5,1.1,1.4,2.2,2.2,3c3,3,7.3,4,11.4,2.6c4.1-1.4,7.4-5.7,7.4-9.9
			C30.6,29,30.4,27.5,29.6,25.8z M19.6,38.2c-1.8,0-3.6-1.3-4.1-2.6c-0.5-1.3-0.6-2.4-0.1-3.7c0.3-0.7,0.5-0.8,0.8-1.4
			c-0.7-1-1.2-1.6-1.2-3.2c0-3.7,4.5-6.2,7.8-3.1l0.4,0.5c0.1,0.2,0.3,0.5,0.4,0.8c0.6,1.3,0.5,2.3,0.1,3.6
			c-0.2,0.6-0.5,0.9-0.8,1.4c0.1,0.4,0.4,0.6,0.8,1.4C25,34.7,22.8,38.1,19.6,38.2z"/>
		<path d="M48.7,12.5c-0.4,0.5-1.6,1.7-2.2,2.2c-0.6,0.6-6.1,6.3-6.6,6.5c-0.1-0.6-0.7-1.3-0.9-1.9c-0.8-1.5-2.4-3.5-3.6-4.7
			c-1.4-1.4-4.8-4.1-6.6-4.5c0.1-0.4,0.7-0.9,1-1.2c1.1-1.1,7.2-7.3,7.7-7.6c0.6,0.1,1.4,0.6,2,0.8c1.1,0.6,3.3,2.1,4.1,2.9
			c0.3,0.3,0.5,0.4,0.8,0.6L45,6.4c0.9,0.9,2.2,2.9,2.9,4.1C48.2,11.1,48.6,11.9,48.7,12.5z"/>
		<path d="M34.3,0.3c-0.1,0.4-0.7,0.9-1,1.2l-5.4,5.4c-2.5,2.5-1.6,2.2-3.5,1.8c-2.6-0.6-6.2-0.7-8.7-0.2c-0.5,0.1-0.9,0.2-1.4,0.2
			c0.2-0.8,2.1-2.7,2.7-3.3C19.6,2.7,23.4,1,27,0.3C27.8,0.1,28.7,0,29.6,0H31c0.6,0,1.2,0.1,1.8,0.1C33.3,0.2,33.8,0.3,34.3,0.3z"
			/>
		<path d="M50,20.4c0,3.7-1.7,8.2-4,11c-0.5,0.6-0.9,1.1-1.4,1.6l-1.5,1.5c-0.3,0.3-1.2,1.1-1.7,1.2c0-0.6,0.2-1.2,0.3-1.6
			c0.4-2.8,0.4-5.8-0.3-8.6c-0.4-1.7-0.4-1.2,0.7-2.4l6.6-6.6c0.3-0.3,0.5-0.7,1-0.8c0,0.5,0.1,1,0.2,1.5L50,20.4z"/>
		<path d="M19.5,35.3c-2.2,0-2.2-3.4,0-3.4C21.8,31.9,21.8,35.3,19.5,35.3z"/>
		<path d="M21.2,27.1c0,2.7-3.4,2.3-3.4,0.2c0-0.3,0.3-0.9,0.4-1.1c0.5-0.6,1-0.5,1.7-0.5C20.5,25.7,21.2,26.5,21.2,27.1z"/>
	</g>
</g>
</svg>
