<?xml version="1.0" encoding="utf-8"?>
<!-- Generator: Adobe Illustrator 22.1.0, SVG Export Plug-In . SVG Version: 6.00 Build 0)  -->
<svg version="1.1" id="Layer_1" xmlns="http://www.w3.org/2000/svg" xmlns:xlink="http://www.w3.org/1999/xlink" x="0px" y="0px"
	 viewBox="0 0 50 50" style="enable-background:new 0 0 50 50;" xml:space="preserve">
<g>
	<path d="M8.8,34.4c0-0.9,0.8-1.5,1.8-1.5h21.1c0.5,0,0.9,0.1,1.2,0.4c1.2,1.1,0.2,2.5-1,2.5H10.4C9.4,35.8,8.8,34.9,8.8,34.4z
		 M8.8,28V14.2c0-0.9,0.7-1.6,1.6-1.6h7.5c0.9,0,1.6,0.7,1.6,1.6V28c0,1-0.7,1.6-1.8,1.6h-7.1C9.5,29.6,8.8,29,8.8,28z M31.7,29.6
		h-7.1c-2.4,0-2.2-2.9-0.3-2.9h7.6C33.9,26.7,34.1,29.6,31.7,29.6z M32,22.5h-7.9c-1.6,0-1.9-2.8,0.1-2.8h8
		C33.8,19.7,34,22.5,32,22.5z M31.9,16.3h-7.5c-0.4,0-0.9-0.2-1.1-0.4c-0.5-0.5-0.7-1.5,0-2.1c0.3-0.3,0.7-0.4,1.2-0.4h7.4
		C33.9,13.5,34,16.3,31.9,16.3z M32.2,9.3h-22c-0.5,0-0.7-0.1-0.9-0.4c-1-1-0.2-2.4,1-2.4h21.5C34.2,6.5,33.7,9.3,32.2,9.3z
		 M2.5,1.6v38.9C2.5,41.4,3.1,42,4,42h34.2c0.9,0,1.5-0.7,1.5-1.5V1.6c0-0.9-0.6-1.5-1.5-1.5H3.8C3.1,0.1,2.5,0.8,2.5,1.6z"/>
	<path d="M42.5,40.8c0,1.2-0.7,2.3-1.4,2.9c-0.8,0.7-1.8,1.2-3.2,1.2H10.3v3.5c0,0.9,0.6,1.5,1.5,1.5h34.4c0.7,0,1.3-0.7,1.3-1.5
		V9.5C47.5,8.6,46.9,8,46,8h-3.5V40.8z"/>
	<path d="M11.7,26.7h4.9V15.5h-4.9V26.7z"/>
</g>
</svg>
