<?xml version="1.0" encoding="utf-8"?>
<!-- Generator: Adobe Illustrator 22.1.0, SVG Export Plug-In . SVG Version: 6.00 Build 0)  -->
<svg version="1.1" id="Layer_1" xmlns="http://www.w3.org/2000/svg" xmlns:xlink="http://www.w3.org/1999/xlink" x="0px" y="0px"
	 viewBox="0 0 50 50" style="enable-background:new 0 0 50 50;" xml:space="preserve">
<g>
	<path d="M18,33.3c0-1.2,0.6-1.5,1.6-1.5c1.1,0,4.5,4.5,9.6,0.7c0.8-0.6,0.8-0.7,1.6-0.7c0.8,0,1.2,0.6,1.2,1.5
		c0,0.7-0.7,1.1-1.1,1.4c-3.8,2.8-8.1,2.9-11.8,0C18.7,34.4,18,34,18,33.3z M27.4,26.6c0-1.6,2-2.2,2.9-1.2c1.5,1.7-0.8,4-2.4,2.4
		C27.7,27.6,27.4,27,27.4,26.6z M20.9,28.3c-0.5,0-1-0.3-1.2-0.6l-0.1-0.2c-1.3-1.9,1.3-3.6,2.6-2.2C23.2,26.7,22.2,28.3,20.9,28.3z
		 M3.4,23.6c0,2.1,1.3,3,2.6,4.4c0.4,0.4,0.8,0.7,1.3,1.1l3.5,3.4c1.6,1.2,1.1,1.5,0.7,3.9l-0.9,5.2c-0.2,1-0.4,1.7-0.4,2.8
		c0,2.1,1.9,3.9,4,3.9c1.4,0,3.7-1.4,4.9-2.1l6-3c0.5,0,7.1,3.6,7.9,4c1.8,0.9,3.5,1.9,5.7,0c1.8-1.6,1.2-3.7,0.9-5.4
		c-0.2-1.3-1.3-7.2-1.3-8c0-0.6,1.5-1.7,2.2-2.4c0.8-0.8,1.5-1.5,2.3-2.4c1.7-1.7,3.9-3,3.9-5.5c0-1.3-0.8-2.6-1.6-3.1
		c-1.2-0.8-2-0.8-3.7-1.1c-1.4-0.2-2.8-0.4-4.2-0.6c-4.8-0.7-3.6,0.1-5.7-3.9c-0.6-1.1-1-2.1-1.6-3.2C28.7,9.4,28,6.9,25,6.9
		c-2.1,0-3.3,1.5-4,3.1c-0.2,0.5-0.5,1.1-0.8,1.6C20,11.9,17.3,17.7,17,18c-0.4,0.4-1.2,0.4-1.9,0.5c-0.7,0.1-1.4,0.2-2.1,0.3
		l-6.3,0.9C4.8,20.1,3.4,21.7,3.4,23.6z"/>
	<path d="M0,8.1C0,8.6,0.1,9,0.4,9.4l1,1.1c0.1,0.1,1.1,0.9,1.1,1.1c0,1.8-1.1,3.3,0.3,4.6c1.2,1.2,2.2,0.9,3.5,0.2
		c2-1.1,1.3-1,3.1-0.1c1.2,0.6,2.4,1.2,3.6,0c1.5-1.4,0.4-3,0.3-4.7c0.4-0.3,1.1-1,1.5-1.5c0.5-0.5,1.1-1.1,1.1-2
		c0-2.9-3.5-2.4-4.4-2.8c-0.7-0.2-0.9-2.3-2.1-3.3C8.3,1.2,6.7,1.5,5.8,3L4.9,4.8C4.7,5.4,4.7,5.2,4.5,5.3C3.8,5.7,0,5.1,0,8.1z"/>
	<path d="M34.1,8.1c0,1,0.5,1.5,1.1,2c0.4,0.4,1.1,1.2,1.5,1.5c-0.1,0.7-0.5,2.3-0.5,3c0,1.4,1.1,2.4,2.7,2.4c0.5,0,1.9-0.9,2.4-1.1
		c0.9-0.4,0.4-0.6,2.3,0.4c0.6,0.3,1.1,0.7,1.8,0.7c1.3,0,2.4-1,2.4-2.3c0-1.1-0.4-2-0.4-3.1c0-0.5,2.5-1.7,2.5-3.5
		c0-3-3.6-2.5-4.4-2.8c-0.5-0.2-0.3-0.4-0.7-1.1c-0.2-0.3-0.2-0.3-0.3-0.6c-0.1-0.3-0.1-0.3-0.3-0.6c-1.2-2.1-3.5-1.7-4.4,0
		c-0.2,0.4-0.4,0.8-0.6,1.2c-0.3,0.6-0.4,1-0.7,1.1C37.9,5.6,34.1,5.1,34.1,8.1z"/>
</g>
</svg>
