<?xml version="1.0" encoding="utf-8"?>
<!-- Generator: Adobe Illustrator 22.1.0, SVG Export Plug-In . SVG Version: 6.00 Build 0)  -->
<svg version="1.1" id="Layer_1" xmlns="http://www.w3.org/2000/svg" xmlns:xlink="http://www.w3.org/1999/xlink" x="0px" y="0px"
	 viewBox="0 0 50 50" style="enable-background:new 0 0 50 50;" xml:space="preserve">
<g>
	<path d="M37.1,9.5l-5.5-0.2c0.1,0,0.2-0.1,0.3-0.1c0.3-0.1,0.4-0.1,0.7-0.2C34,8.8,35,7.7,35,6.3c0-3.6-3.8-3.9-5.2-2.6
		c-1,1-1.8,4.6-1.8,5.8h-6c-0.4-1.7-0.1-1.8-0.9-4.2C20.5,3.7,19.7,3,17.9,3c-1.8,0-3.2,1.8-2.9,3.6c0.5,2.6,2.6,2.4,3.6,2.8
		l-5.7,0.1c-0.5-1-1-1.9-1-3.4c0-0.9,0.3-1.8,0.5-2.5c0.2-0.6,0.8-1.4,1.2-1.8l0.8-0.7c0.9-0.6,1.9-1,3-1.1h1.1
		c1.8,0.2,3.6,1.1,4.7,2.9C24,4,24.9,7.3,24.9,9.1l0.3-1.7c0.7-4.1,2.2-7.4,7-7.4c2.8,0,5,2.2,5.7,4.6C38.5,7.4,37.2,9,37.1,9.5z"/>
	<path d="M18.4,30.5c0.2,0.2,0.5,0.5,0.5,0.9c0,2.2-3,2.2-3,0C15.9,30.3,17.4,29.5,18.4,30.5z"/>
	<path d="M2.7,21.8c-0.2,0-0.3,0.1-0.3,0.3v23.8c0,2,2,4.1,4.1,4.1h37c0.5,0,1.3-0.2,1.7-0.4c1.4-0.8,2.4-2.1,2.4-3.9V21.8H2.7z
		 M15.7,35.5c-0.9-0.4-1.8-1.3-2.2-2.2c-0.9-1.9-0.2-4.1,1.5-5.4c0.6-0.4,1.6-0.8,2.5-0.8c2.3,0,4.3,1.8,4.3,4.1
		c0,1.5-0.2,2.3-1.3,3.4C19.2,35.9,17.3,36.2,15.7,35.5z M21.3,44.1c-1.6,0-2-1.1-1.3-2.3c0.1-0.2,0.2-0.4,0.3-0.6l6.2-10.8
		c0.2-0.4,0.4-0.7,0.6-1.1c0.3-0.5,0.6-1.2,1-1.5c0.6-0.3,1.2-0.3,1.6,0.1c1,0.9,0.1,2.3-0.5,3.2C27.2,35,25,39,22.8,42.6
		C22.4,43.1,22.1,44.1,21.3,44.1z M36.6,42.1c-0.4,0.9-1.3,1.8-2.2,2.2c-0.4,0.2-1.2,0.4-1.8,0.4c-1.1,0-2.3-0.6-2.9-1.2
		c-0.5-0.5-0.6-0.5-0.9-1.2c-2-4.1,2.4-7.7,5.7-5.9C36.6,37.5,37.5,39.9,36.6,42.1z M31.1,40.2c0,2.7,3.9,1.6,2.8-0.5
		C33.2,38.1,31.1,38.9,31.1,40.2z"/>
	<path d="M50,13.7v3.8c0,0.9-0.7,1.5-1.6,1.5H1.6C0.7,19,0,18.4,0,17.5v-3.8c0-0.9,0.8-1.4,1.8-1.4h46.4C49.2,12.3,50,12.8,50,13.7z
		"/>
	<g>
		<path d="M2.7,21.8c-0.2,0-0.3,0.1-0.3,0.3v23.8c0,2,2,4.1,4.1,4.1h37c0.5,0,1.3-0.2,1.7-0.4c1.4-0.8,2.4-2.1,2.4-3.9V21.8H2.7z
			 M15.7,35.5c-0.9-0.4-1.8-1.3-2.2-2.2c-0.9-1.9-0.2-4.1,1.5-5.4c0.6-0.4,1.6-0.8,2.5-0.8c2.3,0,4.3,1.8,4.3,4.1
			c0,1.5-0.2,2.3-1.3,3.4C19.2,35.9,17.3,36.2,15.7,35.5z M21.3,44.1c-1.6,0-2-1.1-1.3-2.3c0.1-0.2,0.2-0.4,0.3-0.6l6.2-10.8
			c0.2-0.4,0.4-0.7,0.6-1.1c0.3-0.5,0.6-1.2,1-1.5c0.6-0.3,1.2-0.3,1.6,0.1c1,0.9,0.1,2.3-0.5,3.2C27.2,35,25,39,22.8,42.6
			C22.4,43.1,22.1,44.1,21.3,44.1z M36.6,42.1c-0.4,0.9-1.3,1.8-2.2,2.2c-0.4,0.2-1.2,0.4-1.8,0.4c-1.1,0-2.3-0.6-2.9-1.2
			c-0.5-0.5-0.6-0.5-0.9-1.2c-2-4.1,2.4-7.7,5.7-5.9C36.6,37.5,37.5,39.9,36.6,42.1z"/>
		<path d="M50,13.7v3.8c0,0.9-0.7,1.5-1.6,1.5H1.6C0.7,19,0,18.4,0,17.5v-3.8c0-0.9,0.8-1.4,1.8-1.4h46.4C49.2,12.3,50,12.8,50,13.7
			z"/>
		<path d="M37.1,9.5l-5.5-0.2c0.1,0,0.2-0.1,0.3-0.1c0.3-0.1,0.4-0.1,0.7-0.2C34,8.8,35,7.7,35,6.3c0-3.6-3.8-3.9-5.2-2.6
			c-1,1-1.8,4.6-1.8,5.8h-6c-0.4-1.7-0.1-1.8-0.9-4.2C20.5,3.7,19.7,3,17.9,3c-1.8,0-3.2,1.8-2.9,3.6c0.5,2.6,2.6,2.4,3.6,2.8
			l-5.7,0.1c-0.5-1-1-1.9-1-3.4c0-0.9,0.3-1.8,0.5-2.5c0.2-0.6,0.8-1.4,1.2-1.8l0.8-0.7c0.9-0.6,1.9-1,3-1.1h1.1
			c1.8,0.2,3.6,1.1,4.7,2.9C24,4,24.9,7.3,24.9,9.1l0.3-1.7c0.7-4.1,2.2-7.4,7-7.4c2.8,0,5,2.2,5.7,4.6C38.5,7.4,37.2,9,37.1,9.5z"
			/>
		<path d="M31.1,40.2c0-1.3,2.1-2.1,2.8-0.5C35,41.8,31.1,42.9,31.1,40.2z"/>
		<path d="M18.9,31.4c0,2.2-3,2.2-3,0c0-1.1,1.5-2,2.5-0.9C18.6,30.7,18.9,31,18.9,31.4z"/>
	</g>
</g>
</svg>
