<?xml version="1.0" encoding="utf-8"?>
<!-- Generator: Adobe Illustrator 22.1.0, SVG Export Plug-In . SVG Version: 6.00 Build 0)  -->
<svg version="1.1" id="Layer_1" xmlns="http://www.w3.org/2000/svg" xmlns:xlink="http://www.w3.org/1999/xlink" x="0px" y="0px"
	 viewBox="0 0 50 50" style="enable-background:new 0 0 50 50;" xml:space="preserve">
<g>
	<path d="M36.7,12c-0.1-1.3-1.1-3.6-1.7-4.7c-0.9-1.4-1.8-2.4-2.9-3.6l-1.3-1.1c-1.5-1.1-3.2-1.8-5-2.3c-1-0.2-2-0.4-3-0.4h-1.2
		c-2,0.1-4.1,0.6-5.9,1.4c-1.2,0.6-2.4,1.4-3.4,2.3C9.6,6,8.2,8.4,7.4,12c-4.2,0-3.6-0.5-3.6,7.3c0,0.2,0.1,0.3,0.3,0.3H40
		c0.2,0,0.3-0.1,0.3-0.3v-6C40.3,11.6,37.7,12,36.7,12z M26.8,11.9c-0.3,0.5-0.7,0.8-0.7,1.6c0,0.8,0.1,1.5-0.1,2.2
		c-0.6,1.9-3.1,0.3-4,0.3c-0.4,0-1.8,0.7-2.6,0.7c-1.5,0-1.4-2.1-1.4-3.2c0-0.6-0.3-0.9-0.7-1.6c-0.3-0.4-0.8-0.9-0.8-1.5
		c0-0.8,0.5-1.1,1-1.4c0.6-0.3,1.2-0.4,1.8-0.7C19.9,8,20,7.6,20.5,7c0.5-0.7,0.7-1.1,1.6-1.1c1.3,0,1.7,1.7,2.5,2.3
		c1.3,0.9,3,0.3,3,2.3C27.6,10.9,27,11.6,26.8,11.9z M22.1,9.7c-0.4,0.3-0.7,1.1-1.9,1.2c0.1,0.7,0.7,0.5,0.7,2.4
		c1.9-0.9,2.4,0.8,2.4-0.6c0-1.1,0.5-1.1,0.6-1.7c-0.3-0.2-0.7-0.3-1-0.5C22.5,10.2,22.4,9.9,22.1,9.7z M22.9,10.5
		c-0.4-0.3-0.4-0.6-0.8-0.8c-0.4,0.3-0.7,1.1-1.9,1.2c0.1,0.7,0.7,0.5,0.7,2.4c1.9-0.9,2.4,0.8,2.4-0.6c0-1.1,0.5-1.1,0.6-1.7
		C23.6,10.8,23.2,10.7,22.9,10.5z"/>
	<path d="M46.2,19.4c-0.2,0.3-0.3,0.6-0.3,1.2v9.2h-2.8v-5.7c0-0.9-0.7-1.7-1.6-1.7h-10c-0.2,0-0.3,0.1-0.3,0.3v17.2
		c0,0.2,0.1,0.3,0.3,0.3h10c0.9,0,1.6-0.8,1.6-1.7v-5.7h4.3c0.9,0,1.5-0.6,1.5-1.5V20.4C48.9,18.8,47,18.5,46.2,19.4z M37.6,34.6
		c-0.3,0.6-0.6,1.7-1.6,1.7c-0.7,0-1.4-0.6-1.4-1.5c0-0.6,1.4-3.4,1.7-4.2c0.2-0.4,0.4-1,0.6-1.4c-0.6,0-1.6,0.1-2.1-0.1
		c-0.5-0.2-1-0.6-1-1.2c0-1,0.5-1.6,1.5-1.6H39c1,0,1.5,0.6,1.5,1.6C40.5,28.2,37.9,33.9,37.6,34.6z"/>
	<path d="M16,22.4c-0.2,0-0.3,0.1-0.3,0.3v17.2c0,0.2,0.1,0.3,0.3,0.3h12.4V22.4H16z M25.1,29l-2.9,6.5c-0.8,1.5-2.7,0.7-2.7-0.5
		c0-0.8,0.8-2.3,1.1-3.1l1.2-2.7c-0.9,0-3.1,0.3-3.1-1.4c0-1,0.7-1.5,1.7-1.5h3.5c0.7,0,1.2,0.4,1.4,0.9
		C25.6,27.8,25.3,28.4,25.1,29z"/>
	<path d="M12.6,22.4H2.5c-0.6,0-1.4,0.6-1.4,1.5v14.9c0,0.7,0.7,1.4,1.4,1.4h10.1c0.2,0,0.3-0.1,0.3-0.3V22.7
		C12.9,22.5,12.8,22.4,12.6,22.4z M6.7,36c-0.6,0.5-2.3,0.5-2.3-1.3c0-0.5,2.1-4.6,2.3-5.5c-0.7,0-1.6,0.1-2.1-0.1
		c-0.5-0.2-1-0.6-1-1.3c0-1,0.7-1.5,1.7-1.5h3.5c1.2,0,1.5,0.8,1.5,1.7C10.3,28.2,7.2,35.5,6.7,36z"/>
	<path d="M15.2,46.5c0,1.9,1.6,3.5,3.5,3.5h6.6c4.9,0,4.7-7,0-7h-6.5C16.7,43,15.2,44.8,15.2,46.5z"/>
	<path d="M3.8,43.3v5.1c0,1.1,0.6,1.5,1.4,1.6h2.6h0.1H8h0.1h0.1h0.1h0.1h0.1h0.1h0.1h0.1h0.1h0.1h0.1H9h0.1h0.1h0.1h0.1h0.1h0.1
		h0.1h0.1h0.1h0.1H10h0.1h0.1h0.1h0.1h0.1h0.1h0.1h0.1h0.1h0.1H11H11h0.1h0.1h0.1h0.1h0.1h0.1h0.1h0.1h0.1h0.1H12h0.1h0.1h0.1h0.1
		h0.1h0.1h0.1h0.1h0.1h0.1H13h0.1h0.1h0.1h0.1h0.1c-1-1.8-1.4-3.5-0.6-5.6c0.3-1,1-1.4,0.3-1.4h-9C3.9,43,3.8,43.1,3.8,43.3z"/>
	<path d="M31.7,46.1c0,1.9-0.1,2.2-1,3.9h8.2c0.7-0.1,1.4-0.6,1.4-1.3V43h-9.5C30.9,43.7,31.7,44.5,31.7,46.1z"/>
	<path d="M23.9,11c-0.1,0.7-0.6,0.6-0.6,1.7c0,1.4-0.5-0.3-2.4,0.6c0-1.9-0.6-1.7-0.7-2.4c1.2-0.1,1.5-0.9,1.9-1.2
		c0.3,0.2,0.4,0.5,0.8,0.8C23.2,10.7,23.6,10.8,23.9,11z"/>
</g>
</svg>
