<?xml version="1.0" encoding="utf-8"?>
<!-- Generator: Adobe Illustrator 22.1.0, SVG Export Plug-In . SVG Version: 6.00 Build 0)  -->
<svg version="1.1" id="Layer_1" xmlns="http://www.w3.org/2000/svg" xmlns:xlink="http://www.w3.org/1999/xlink" x="0px" y="0px"
	 viewBox="0 0 50 50" style="enable-background:new 0 0 50 50;" xml:space="preserve">
<g>
	<path d="M16.2,49.7c-0.7,0-1.4,0.2-2.1,0.2c-0.8,0-1.3,0.1-2.2,0.1H5.8c-1.6,0-3.2-0.9-4-1.8c-0.8-0.8-1.8-2.4-1.8-4v-6.1
		c0-1.5,0.3-3.6,0.3-4.3c0.5,0.3,2.6,2.3,3.1,2.9c0.4,0.5,3.2,3.1,4,4C7.6,41,7.6,41,7.8,41.3l0.3,0.2c0,0.1,0.1,0.1,0.2,0.2
		c0.6,0.6,0.7,0.6,1,1l3.5,3.5c0.2,0.3,0.3,0.3,0.5,0.5C13.9,47.1,15.9,49.2,16.2,49.7z"/>
	<path d="M30.3,1c-1,0-4.5,1.3-5.6,1.7c-4.3,1.7-8.4,4.2-11.8,7.4c-1.4,1.3-1.4,1.2-2.8,2.7l-1.3,1.4c-0.3,0.4-0.6,0.7-0.9,1
		c-0.8,1.1-2.3,3.2-2.9,4.4c-1.1,2.2-2.6,5.1-3.4,7.6C1.6,28,1,29.7,1,30.3C1,30.4,19.6,49,19.7,49c1.1,0,4.5-1.3,5.6-1.7
		c4.5-1.8,7.8-3.9,11.4-6.9c1.1-0.9,2.3-2.1,3.2-3.2c0.2-0.2,0.3-0.3,0.4-0.5c0.2-0.2,0.2-0.3,0.4-0.5l1.3-1.5
		c2.6-3.5,5.1-7.8,6.3-12c0.2-0.7,0.8-2.2,0.8-2.9C49,19.6,30.4,1,30.3,1z M35.8,20.3c0,1.2-1.4,2-2.7,0.8c-0.4-0.4-0.6-0.7-1-1.1
		l-2.7,2.6c0.3,0.5,0.9,0.8,1.4,1.5c0.9,1.3-0.6,3.3-2.5,1.6c-0.4-0.4-0.7-0.7-1.1-1l-2.6,2.6c0.4,0.5,1.1,1,1.5,1.6
		c0.8,1.4-0.8,3.2-2.5,1.5c-0.3-0.3-0.7-0.6-1-1L20,32.1c0.7,0.8,1.7,1.3,1.7,2.3c0,1.2-1.4,2.1-2.7,0.7c-0.3-0.4-0.7-0.6-1-1
		c-0.7,0.5-1.3,1.7-2.4,1.7c-0.9,0-1.4-0.5-1.4-1.4c0-1.1,1.2-1.7,1.7-2.4c-0.4-0.3-0.7-0.6-1-1c-1.8-1.8,0.3-3.8,2-2.1
		c0.4,0.4,0.6,0.7,1,1.1l2.7-2.7c-0.6-0.4-1.7-1.5-1.7-2.3c0-1.9,2.2-2,3.7,0.3l2.7-2.7c-0.6-0.4-1.7-1.5-1.7-2.3
		c0-1.1,1.3-2.1,2.7-0.7c0.3,0.3,0.7,0.6,1,1l2.7-2.7c-0.7-0.8-1.7-1.3-1.7-2.3c0-1.2,1.4-2.1,2.7-0.7c0.3,0.4,0.7,0.6,1,1
		c0.7-0.5,1.3-1.7,2.4-1.7c1.3,0,2,1.4,0.7,2.7c-0.4,0.3-0.6,0.7-1,1C34.6,18.6,35.8,19.2,35.8,20.3z"/>
	<path d="M50,5.8v6.1c0,0.9-0.1,1.4-0.1,2.2c0,0.7-0.2,1.4-0.2,2.1c-1.3-0.9-2.9-2.8-4-4l-2-1.9c-0.3-0.3-0.7-0.6-1-1
		C42.4,9,42.4,9,42.2,8.7c-0.7-0.7-1-1-1.5-1.4l-2.5-2.5c-0.7-0.9-3.4-2.9-4.4-4.5c0.7,0,2.8-0.3,4.3-0.3h6.1c1.6,0,3.2,0.9,4,1.8
		C49.1,2.6,50,4.2,50,5.8z"/>
	<g>
		<path d="M30.3,1c-1,0-4.5,1.3-5.6,1.7c-4.3,1.7-8.4,4.2-11.8,7.4c-1.4,1.3-1.4,1.2-2.8,2.7l-1.3,1.4c-0.3,0.4-0.6,0.7-0.9,1
			c-0.8,1.1-2.3,3.2-2.9,4.4c-1.1,2.2-2.6,5.1-3.4,7.6C1.6,28,1,29.7,1,30.3C1,30.4,19.6,49,19.7,49c1.1,0,4.5-1.3,5.6-1.7
			c4.5-1.8,7.8-3.9,11.4-6.9c1.1-0.9,2.3-2.1,3.2-3.2c0.2-0.2,0.3-0.3,0.4-0.5c0.2-0.2,0.2-0.3,0.4-0.5l1.3-1.5
			c2.6-3.5,5.1-7.8,6.3-12c0.2-0.7,0.8-2.2,0.8-2.9C49,19.6,30.4,1,30.3,1z M35.8,20.3c0,1.2-1.4,2-2.7,0.8c-0.4-0.4-0.6-0.7-1-1.1
			l-2.7,2.6c0.3,0.5,0.9,0.8,1.4,1.5c0.9,1.3-0.6,3.3-2.5,1.6c-0.4-0.4-0.7-0.7-1.1-1l-2.6,2.6c0.4,0.5,1.1,1,1.5,1.6
			c0.8,1.4-0.8,3.2-2.5,1.5c-0.3-0.3-0.7-0.6-1-1L20,32.1c0.7,0.8,1.7,1.3,1.7,2.3c0,1.2-1.4,2.1-2.7,0.7c-0.3-0.4-0.7-0.6-1-1
			c-0.7,0.5-1.3,1.7-2.4,1.7c-0.9,0-1.4-0.5-1.4-1.4c0-1.1,1.2-1.7,1.7-2.4c-0.4-0.3-0.7-0.6-1-1c-1.8-1.8,0.3-3.8,2-2.1
			c0.4,0.4,0.6,0.7,1,1.1l2.7-2.7c-0.6-0.4-1.7-1.5-1.7-2.3c0-1.9,2.2-2,3.7,0.3l2.7-2.7c-0.6-0.4-1.7-1.5-1.7-2.3
			c0-1.1,1.3-2.1,2.7-0.7c0.3,0.3,0.7,0.6,1,1l2.7-2.7c-0.7-0.8-1.7-1.3-1.7-2.3c0-1.2,1.4-2.1,2.7-0.7c0.3,0.4,0.7,0.6,1,1
			c0.7-0.5,1.3-1.7,2.4-1.7c1.3,0,2,1.4,0.7,2.7c-0.4,0.3-0.6,0.7-1,1C34.6,18.6,35.8,19.2,35.8,20.3z"/>
		<path d="M50,5.8v6.1c0,0.9-0.1,1.4-0.1,2.2c0,0.7-0.2,1.4-0.2,2.1c-1.3-0.9-2.9-2.8-4-4l-2-1.9c-0.3-0.3-0.7-0.6-1-1
			C42.4,9,42.4,9,42.2,8.7c-0.7-0.7-1-1-1.5-1.4l-2.5-2.5c-0.7-0.9-3.4-2.9-4.4-4.5c0.7,0,2.8-0.3,4.3-0.3h6.1c1.6,0,3.2,0.9,4,1.8
			C49.1,2.6,50,4.2,50,5.8z"/>
		<path d="M16.2,49.7c-0.7,0-1.4,0.2-2.1,0.2c-0.8,0-1.3,0.1-2.2,0.1H5.8c-1.6,0-3.2-0.9-4-1.8c-0.8-0.8-1.8-2.4-1.8-4v-6.1
			c0-1.5,0.3-3.6,0.3-4.3c0.5,0.3,2.6,2.3,3.1,2.9c0.4,0.5,3.2,3.1,4,4C7.6,41,7.6,41,7.8,41.3l0.3,0.2c0,0.1,0.1,0.1,0.2,0.2
			c0.6,0.6,0.7,0.6,1,1l3.5,3.5c0.2,0.3,0.3,0.3,0.5,0.5C13.9,47.1,15.9,49.2,16.2,49.7z"/>
	</g>
</g>
</svg>
