<?xml version="1.0" encoding="utf-8"?>
<!-- Generator: Adobe Illustrator 22.1.0, SVG Export Plug-In . SVG Version: 6.00 Build 0)  -->
<svg version="1.1" id="Layer_1" xmlns="http://www.w3.org/2000/svg" xmlns:xlink="http://www.w3.org/1999/xlink" x="0px" y="0px"
	 viewBox="0 0 50 50" style="enable-background:new 0 0 50 50;" xml:space="preserve">
<g>
	<path d="M43,27.6c-0.2-0.4-0.3-0.9-0.5-1.3c-0.2-0.5-0.4-0.8-0.6-1.3l-1.4-2.3c-0.5-0.7-1-1.3-1.6-2l-4.5-5.6
		c-0.1-0.2-0.3-0.4-0.6-0.4H16.2c-0.4,0-1.5,1.5-1.7,1.9l-3.3,4.1C9,23,7.4,25.7,6.6,28.9c-0.4,1.4-0.7,3.4-0.7,4.9
		c0,1.3,0.1,2.8,0.4,3.8c0.5,2.1,1.4,4.1,2.7,5.8c0.6,0.8,1.4,1.6,2.1,2.2c2.6,2.1,5.5,3.4,8.8,4c1.3,0.2,2.7,0.4,4.1,0.4h2.3
		c2.4-0.1,4.9-0.5,7.1-1.3c2.4-0.9,3.5-1.5,5.4-3.1c1.2-0.9,2.1-2.1,2.9-3.4C44.5,38.2,44.7,32.2,43,27.6z M27.2,38
		c-0.3,0.2-0.5,0.2-0.8,0.4c0,0.8,0.3,2.8-1.4,2.8c-1.7,0-1.4-1.9-1.4-2.8c-1.2-0.3-2.3-1.4-2.7-2.6c-1.1-3,1.4-3.4,2.2-2.5
		c0.8,0.9,0,2.5,2.1,2.5c1.5,0,1.9-2.7,0-3c-0.6-0.1-0.8,0-1.3-0.2c-3.1-0.8-4.2-4.5-2.3-6.8c0.6-0.8,1.2-1.1,2.1-1.5
		c0-1.7-0.3-3.6,1.4-3.6c0.7,0,1.2,0.5,1.4,1.1c0.1,0.5,0,1.9,0,2.6c1.8,0.4,3.2,2.8,2.9,4.3c-0.2,1.4-2.1,1.6-2.7,0.4
		c-0.3-0.7,0-1.1-0.6-1.6c-0.4-0.4-0.9-0.6-1.6-0.4c-0.6,0.2-1,0.8-1,1.3c0,2.7,2.7,0.6,5,3.4c0.1,0.1,0.4,0.6,0.5,0.7
		C29.9,34.5,29.2,36.8,27.2,38z"/>
	<path d="M14.7,1.4c0,0.5,0.7,1.8,0.9,2.3c1,2,1.9,5.6,1.9,8h15c0-5.2,2.8-9.5,2.8-10.2c0-0.9-0.6-1.5-1.5-1.5
		c-0.5,0-2.3,0.9-2.8,1.2c-0.5,0.3-2.4,1.2-2.8,1.3C27,1.7,26.5,0,24.8,0c-0.9,0-2.3,2-3,2.5c-0.5-0.1-2.1-1-2.7-1.3
		C18.5,0.9,16.8,0,16.2,0C15.4,0,14.7,0.6,14.7,1.4z"/>
	<path d="M5.9,1.5v1.4C4.7,2.9,3,2.6,3,4.4c0,1.8,1.8,1.5,2.9,1.5c0,1.3-0.3,2.9,1.7,2.9c0.6,0,1.3-0.7,1.3-1.3V5.9
		c1.3,0,2.9,0.3,2.9-1.6c0-1.7-2-1.4-2.9-1.4V1.3C8.9,0.5,8.2,0,7.4,0H7.3C6.6,0,5.9,0.5,5.9,1.5z"/>
	<path d="M41.1,10.2v1.6h-1.6c-0.6,0-1.3,0.6-1.3,1.2c0,2,1.2,1.8,2.9,1.8v1.6c0,1.7,3,1.9,3-0.2v-1.4c1.1,0,2.9,0.3,2.9-1.5
		c0-1.8-1.8-1.5-2.9-1.5c0-1.5,0.2-2.9-1.7-2.9C41.8,8.9,41.1,9.6,41.1,10.2z"/>
	<path d="M5.9,16.2c0,1.9,3,2.1,3,0C8.9,14.2,5.9,14.3,5.9,16.2z"/>
</g>
</svg>
