<?xml version="1.0" encoding="utf-8"?>
<!-- Generator: Adobe Illustrator 22.1.0, SVG Export Plug-In . SVG Version: 6.00 Build 0)  -->
<svg version="1.1" id="Layer_1" xmlns="http://www.w3.org/2000/svg" xmlns:xlink="http://www.w3.org/1999/xlink" x="0px" y="0px"
	 viewBox="0 0 50 50" style="enable-background:new 0 0 50 50;" xml:space="preserve">
<g>
	<path d="M44.2,4c-0.9-0.5-2.6-1-4-1H27.4c-4.3,0-8.6,3.7-9.5,8c-0.1,0.6-0.3,1.5-0.3,2.2c0,4.1,2.2,7.2,5.3,9
		c1.2,0.7,2.2,0.9,3.5,1.3v3.7c0,1.1,0,2.2,1.7,2.2c0.7,0,2.5-2,3.1-2.6c0.9-0.8,2.1-2.3,2.9-3c0.5-0.4,5-0.1,6.8-0.3
		c1.2-0.1,2.7-0.6,3.6-1.1c0.8-0.5,2-1.4,2.7-2c0.2-0.2,0.3-0.4,0.5-0.6c1.4-1.6,2.2-3.6,2.3-5.7v-1.4C49.8,9.3,47.9,5.9,44.2,4z
		 M27.9,14.7c-1.5,0-1.9-2.1-0.5-2.7c0.6-0.3,1.1-0.1,1.6,0.3C29.9,13.2,29.2,14.7,27.9,14.7z M33.8,14.7c-2,0-1.8-3.1,0.1-2.9
		C35.6,12,35.6,14.7,33.8,14.7z M38.2,13.3c0-0.8,0.7-1.4,1.4-1.5c0.8,0,1.5,0.8,1.5,1.4C41.1,15.2,38.2,15,38.2,13.3z"/>
	<path d="M0,13.8c0,4.1,0.6,7.4,2.1,11.2c0.4,1,0.8,1.8,1.3,2.7c0.2,0.5,0.5,0.9,0.7,1.3c1.5,2.4,2.2,3.6,4.1,5.9l4,4
		c0.4,0.3,0.7,0.6,1.1,0.9c1.6,1.3,3.1,2.2,4.8,3.2c2.2,1.3,4.6,2.2,7.1,2.9c2.5,0.8,5.1,1.1,8,1.1c1.1,0,2.2-0.7,2.8-1.2
		c0.6-0.6,1.3-1.7,1.3-2.8v-6.5c0-1.2-1.5-1.3-2-1.6c-0.8-0.3-7.8-2.6-8.2-2.6c-0.8,0-1.7,0.8-2.4,1.3c-0.7,0.5-1.5,0.9-2.2,1.4
		c-1.8-1.2-1.6-0.7-3.9-2.6l-0.7-0.6c-1.8-1.6-5.4-5.5-5.8-7.3c3.3-5,3.1-3.6,1.8-7.3l-1.9-5.5c-0.3-1-0.5-1.9-1.8-1.9H4.4
		C2,9.7,0,11.7,0,13.8z"/>
</g>
</svg>
