<?xml version="1.0" encoding="utf-8"?>
<!-- Generator: Adobe Illustrator 22.1.0, SVG Export Plug-In . SVG Version: 6.00 Build 0)  -->
<svg version="1.1" id="Layer_1" xmlns="http://www.w3.org/2000/svg" xmlns:xlink="http://www.w3.org/1999/xlink" x="0px" y="0px"
	 viewBox="0 0 50 50" style="enable-background:new 0 0 50 50;" xml:space="preserve">
<g>
	<path d="M14.2,45.4c-0.8-0.4-2.7,0.3-5-2c-0.4-0.4-1-1.3-1.2-1.8c-0.5-1.4-0.4-1.9-0.4-3.7c0.7,0.5,1.1,1.3,1.9,1.6
		c0.9,0.3,1.9-0.3,1.9-1.7c0-0.6-0.7-1.2-1.1-1.5l-2.6-2.6c-1.9-1.9-2.4-0.8-4.5,1.3c-0.5,0.5-2.4,2.1-2.4,2.8c0,1.4,1,2,1.9,1.7
		c0.9-0.3,1.2-1.1,1.9-1.6c0,1.8,0,3,0.5,4.3c0.4,1.1,1,2.3,1.7,3.1c1.8,1.9,3.7,3,6.7,3C15.2,48.3,15.5,46.1,14.2,45.4z M25,4.4
		C24,3.5,23.2,2.7,22.1,2l-1.2-0.6C19,0.6,17.1,0.1,15.1,0h-1.5C11.8,0.1,10,0.5,8.3,1.4C6.8,2.1,4.8,3.5,3.8,4.6
		C3.6,4.8,3.6,4.9,3.4,5.1c-0.8,0.8-1.5,2.1-2,3.1C0.7,9.5,0,12,0,13.8v0.5c0,1.4,0,2.4,0.4,3.9c0.1,0.4,0.3,0.9,0.4,1.4
		C1,20,1.2,20.4,1.4,20.8c0.7,1.5,1.9,3,3,4.1c1.2,1.2,2.7,2.3,4.2,2.9c3.4,1.5,6.9,1.7,10.5,0.5c0.7-0.2,0.7-0.3,1-0.9
		c1.4-2.8,4.5-5.9,7.3-7.3c0.5-0.2,0.8-0.3,1-0.8C30.1,14.3,28.7,8.2,25,4.4z M16.9,22.3c-0.9,0.1-1-0.1-1,0.8
		c0,0.9,0.2,2.4-1.4,2.4c-1.7,0-1.4-1.9-1.4-3.1c-1,0-1.9-0.1-2.6-0.5c-2.6-1.1-1.5-3.2-0.2-3.2c0.8,0,1.1,0.7,2,0.7h4.3
		c1,0,2.3-1.8,0.8-3.1c-1.3-1.2-5.6,0.8-8.1-1.9c-2.6-2.8-1-7.5,3.2-7.8c0.8-0.1,0.6-0.2,0.6-1.1c0-0.7-0.1-1,0.2-1.5
		c0.8-1.1,2.6-0.7,2.6,0.8c0,2.2-0.3,1.5,1.2,1.8c0.8,0.2,1.5,0.4,2.1,0.8c0.1,0.1,0.7,0.5,0.8,0.7c1,1.1,0.2,2.5-0.9,2.5
		c-1.3,0-1.1-1.3-3.2-1.3c-1.5,0-3.6-0.2-4.4,0.5c-0.2,0.2-0.6,0.9-0.6,1.3c0,0.5,0.3,1,0.6,1.3c1.1,1,3.1,0.1,5.6,0.6
		C22,14,22.6,21.4,16.9,22.3z M47.3,10.5c-0.9,0.3-1.2,1.1-1.9,1.6c0-1.7,0-2.9-0.5-4.2C42.8,1.5,35,0.4,35,3c0,3.1,3.3,0.3,6.3,4.1
		c1.1,1.5,1.1,3,1.1,5c-0.7-0.5-1.1-1.3-1.9-1.6c-0.8-0.3-1.9,0.1-1.9,1.7c0,0.7,1.8,2.3,2.4,2.8c2.1,2.1,2.6,3.2,4.6,1.3
		c0.9-0.9,3.7-3.4,3.7-4.1C49.2,10.8,48.2,10.2,47.3,10.5z M48,28.1c-0.6-1.1-1.5-2.1-2.4-3c-4.7-4.7-12.8-5.6-18.4-1.6
		c-0.4,0.3-0.7,0.5-1,0.8l-0.7,0.6c-0.1,0.1-0.1,0.1-0.3,0.2c-1.9,1.8-3.3,4.3-3.9,6.9c-0.3,1.1-0.3,2-0.5,3.2
		c-0.2,1.5,0.6,4.5,1.2,6c0.6,1.6,1.8,3.2,2.9,4.3c0.3,0.3,0.6,0.6,0.9,0.9l1,0.8c2.5,1.7,4.9,2.8,8.1,2.8c3,0,4.2-0.2,6.8-1.4
		c1.3-0.6,3.5-2.2,4.4-3.3c1.9-2.2,2.5-3.3,3.4-6.1c0.5-1.5,0.5-2.6,0.5-4.1v-0.2C50,32.2,49.2,30.1,48,28.1z M41.4,44.1
		c-0.6,0.4-1,0.2-1.6,0c-5.2-1.5-7.8,0.6-9,0.1c-1.8-0.7-0.4-2.5,0.2-3.9c0.3-0.8,0.7-2,0.7-3.1h-1.4c-1.5,0-2.2-2.9,0.6-2.9
		c1.4,0,0.8,0.5,0.8-2.9c0-3.2,4.8-6.9,9-3.2c1.1,1,0.4,2.5-0.8,2.5c-1.2,0-1.5-1.5-3.1-1.3c-0.9,0.1-1.7,0.6-2,1.3
		c-0.1,0.2-0.2,0.7-0.2,0.9c0,1,0.2,1.6,0.2,2.6c1.2,0,2.5-0.2,3.2,0.5c0.3,0.4,0.5,0.9,0.3,1.5c-0.6,1.2-1.9,0.9-3.4,0.9
		c-0.3,0.5-0.4,2.5-0.9,3.6c2.6,0,2.6-0.4,6,0.3c1.1,0.2,2.3,0.4,2.4,1.7C42.1,43.3,41.7,43.8,41.4,44.1z"/>
	<g>
		<path d="M48,28.1c-0.6-1.1-1.5-2.1-2.4-3c-4.7-4.7-12.8-5.6-18.4-1.6c-0.4,0.3-0.7,0.5-1,0.8l-0.7,0.6c-0.1,0.1-0.1,0.1-0.3,0.2
			c-1.9,1.8-3.3,4.3-3.9,6.9c-0.3,1.1-0.3,2-0.5,3.2c-0.2,1.5,0.6,4.5,1.2,6c0.6,1.6,1.8,3.2,2.9,4.3c0.3,0.3,0.6,0.6,0.9,0.9l1,0.8
			c2.5,1.7,4.9,2.8,8.1,2.8c3,0,4.2-0.2,6.8-1.4c1.3-0.6,3.5-2.2,4.4-3.3c1.9-2.2,2.5-3.3,3.4-6.1c0.5-1.5,0.5-2.6,0.5-4.1v-0.2
			C50,32.2,49.2,30.1,48,28.1z M41.4,44.1c-0.6,0.4-1,0.2-1.6,0c-5.2-1.5-7.8,0.6-9,0.1c-1.8-0.7-0.4-2.5,0.2-3.9
			c0.3-0.8,0.7-2,0.7-3.1h-1.4c-1.5,0-2.2-2.9,0.6-2.9c1.4,0,0.8,0.5,0.8-2.9c0-3.2,4.8-6.9,9-3.2c1.1,1,0.4,2.5-0.8,2.5
			c-1.2,0-1.5-1.5-3.1-1.3c-0.9,0.1-1.7,0.6-2,1.3c-0.1,0.2-0.2,0.7-0.2,0.9c0,1,0.2,1.6,0.2,2.6c1.2,0,2.5-0.2,3.2,0.5
			c0.3,0.4,0.5,0.9,0.3,1.5c-0.6,1.2-1.9,0.9-3.4,0.9c-0.3,0.5-0.4,2.5-0.9,3.6c2.6,0,2.6-0.4,6,0.3c1.1,0.2,2.3,0.4,2.4,1.7
			C42.1,43.3,41.7,43.8,41.4,44.1z"/>
		<path d="M25,4.4C24,3.5,23.2,2.7,22.1,2l-1.2-0.6C19,0.6,17.1,0.1,15.1,0h-1.5C11.8,0.1,10,0.5,8.3,1.4C6.8,2.1,4.8,3.5,3.8,4.6
			C3.6,4.8,3.6,4.9,3.4,5.1c-0.8,0.8-1.5,2.1-2,3.1C0.7,9.5,0,12,0,13.8v0.5c0,1.4,0,2.4,0.4,3.9c0.1,0.4,0.3,0.9,0.4,1.4
			C1,20,1.2,20.4,1.4,20.8c0.7,1.5,1.9,3,3,4.1c1.2,1.2,2.7,2.3,4.2,2.9c3.4,1.5,6.9,1.7,10.5,0.5c0.7-0.2,0.7-0.3,1-0.9
			c1.4-2.8,4.5-5.9,7.3-7.3c0.5-0.2,0.8-0.3,1-0.8C30.1,14.3,28.7,8.2,25,4.4z M16.9,22.3c-0.9,0.1-1-0.1-1,0.8
			c0,0.9,0.2,2.4-1.4,2.4c-1.7,0-1.4-1.9-1.4-3.1c-1,0-1.9-0.1-2.6-0.5c-2.6-1.1-1.5-3.2-0.2-3.2c0.8,0,1.1,0.7,2,0.7h4.3
			c1,0,2.3-1.8,0.8-3.1c-1.3-1.2-5.6,0.8-8.1-1.9c-2.6-2.8-1-7.5,3.2-7.8c0.8-0.1,0.6-0.2,0.6-1.1c0-0.7-0.1-1,0.2-1.5
			c0.8-1.1,2.6-0.7,2.6,0.8c0,2.2-0.3,1.5,1.2,1.8c0.8,0.2,1.5,0.4,2.1,0.8c0.1,0.1,0.7,0.5,0.8,0.7c1,1.1,0.2,2.5-0.9,2.5
			c-1.3,0-1.1-1.3-3.2-1.3c-1.5,0-3.6-0.2-4.4,0.5c-0.2,0.2-0.6,0.9-0.6,1.3c0,0.5,0.3,1,0.6,1.3c1.1,1,3.1,0.1,5.6,0.6
			C22,14,22.6,21.4,16.9,22.3z"/>
		<path d="M13.5,48.3c-3,0-4.8-1.2-6.7-3c-0.8-0.8-1.4-1.9-1.7-3.1c-0.4-1.3-0.5-2.5-0.5-4.3c-0.7,0.5-1.1,1.3-1.9,1.6
			c-0.9,0.3-1.9-0.3-1.9-1.7c0-0.7,1.9-2.3,2.4-2.8c2.1-2.1,2.6-3.2,4.5-1.3l2.6,2.6c0.4,0.4,1.1,0.9,1.1,1.5c0,1.4-0.9,2-1.9,1.7
			c-0.9-0.3-1.2-1.1-1.9-1.6c0,1.7,0,2.3,0.4,3.7c0.2,0.6,0.7,1.4,1.2,1.8c2.3,2.3,4.2,1.7,5,2C15.5,46.1,15.2,48.3,13.5,48.3z"/>
		<path d="M49.2,12.2c0,0.7-2.8,3.3-3.7,4.1c-1.9,1.9-2.5,0.8-4.6-1.3c-0.5-0.5-2.4-2.1-2.4-2.8c0-1.5,1-2,1.9-1.7
			c0.9,0.3,1.2,1.1,1.9,1.6c0-2,0-3.5-1.1-5C38.3,3.3,35,6.1,35,3c0-2.6,7.8-1.5,9.9,4.9c0.4,1.3,0.5,2.6,0.5,4.2
			c0.7-0.5,1.1-1.3,1.9-1.6C48.2,10.2,49.2,10.8,49.2,12.2z"/>
	</g>
</g>
</svg>
