<?xml version="1.0" encoding="utf-8"?>
<!-- Generator: Adobe Illustrator 22.1.0, SVG Export Plug-In . SVG Version: 6.00 Build 0)  -->
<svg version="1.1" id="Layer_1" xmlns="http://www.w3.org/2000/svg" xmlns:xlink="http://www.w3.org/1999/xlink" x="0px" y="0px"
	 viewBox="0 0 50 50" style="enable-background:new 0 0 50 50;" xml:space="preserve">
<style type="text/css">
	.st0{fill:none;}
</style>
<rect x="3.3" y="11.8" transform="matrix(0.7434 -0.6688 0.6688 0.7434 -10.3477 23.163)" class="st0" width="43.4" height="26.5"/>
<g>
	<path d="M29.9,3.1C29.5,2.3,29,1.6,28.2,1l-0.6-0.4c-0.2-0.1-0.1-0.1-0.3-0.1C26.8,0.2,26.1,0,25.3,0h-0.6c-0.7,0-1.4,0.2-2,0.5
		c-1.2,0.6-2,1.3-2.5,2.5c-0.3,0.5-0.6,1.2-0.6,1.9v0.8c0,2.6,2.3,5.1,5.5,5.1c2.3,0,3.8-1.3,4.8-3C30.6,6.4,30.6,4.5,29.9,3.1z
		 M45.4,25c-0.2-0.8-1.4-2.6-1.9-3.2l-1.8-2c-0.3-0.3-0.4-0.3-0.7-0.6c-0.5-0.4-0.3-1-0.3-2.2v-2.6c0-2.7,0.3-3.6-2-3.6
		c-1.1,0-2.6,0.4-3.5,0.7c-1.2,0.5-2.9,1.6-3.8,2.5c-0.2,0.2-0.2,0.4-0.6,0.4c-0.2,0-2.9-0.5-4.8-0.5c-4,0-7.9,1-11.2,2.6
		c-0.6,0.3-0.9,0.5-1.5,0.8c-2.1,1.1-4.6,3.4-6,5.5c-1.2,1.8-2.4,4.5-2.4,6.8c-0.5,0-1,0-1.4-0.4C3.2,29,3.1,28.7,3,28.2
		c-0.3-2.5-3-1.7-3-0.3c0,2.7,1.8,4.6,4.1,4.8c0.4,0,0.5-0.1,0.6,0.2c0.1,0.1,0.2,1.1,0.2,1.3c0.4,2.2,1.6,4.5,3,6.3
		c2.3,2.9,2.7,1.5,1.8,4.2c-1,3.5,0,3.1,3.7,4.1c1,0.3,4.2,1.2,5.1,1.2c0.3,0,0.7-0.2,0.9-0.3c0.5-0.4,0.9-2.4,0.9-2.8h10.7
		c0.5,2.3,0.8,3.1,1.9,3.1h0c0.6,0,1.4-0.2,2.6-0.6c1.3-0.4,5.5-1.2,6.1-1.8c1-0.9,0-2.7-0.4-4.6c0.3-0.4,0.8-0.8,1.2-1.2
		c1.3-1.2,2.2-2.8,3-4.4c1.3,0,3.4,0.2,4-0.3c0.2-0.2,0.5-0.6,0.5-1v-9.6C50,24.5,47.4,25,45.4,25z M27.8,20.4h-5.6
		c-1.1,0-1.8-0.7-1.8-1.4c0-0.8,0.8-1.5,1.4-1.5h6.4C29.8,17.5,30.4,20.4,27.8,20.4z M37.4,26.7c0,1.6-2.8,1.9-2.8-0.1
		c0-1-0.3-3,1.3-3c0.5,0,0.8,0.1,1,0.4C37.6,24.6,37.4,25.3,37.4,26.7z"/>
	<g>
		<path d="M45.4,25c-0.2-0.8-1.4-2.6-1.9-3.2l-1.8-2c-0.3-0.3-0.4-0.3-0.7-0.6c-0.5-0.4-0.3-1-0.3-2.2v-2.6c0-2.7,0.3-3.6-2-3.6
			c-1.1,0-2.6,0.4-3.5,0.7c-1.2,0.5-2.9,1.6-3.8,2.5c-0.2,0.2-0.2,0.4-0.6,0.4c-0.2,0-2.9-0.5-4.8-0.5c-4,0-7.9,1-11.2,2.6
			c-0.6,0.3-0.9,0.5-1.5,0.8c-2.1,1.1-4.6,3.4-6,5.5c-1.2,1.8-2.4,4.5-2.4,6.8c-0.5,0-1,0-1.4-0.4C3.2,29,3.1,28.7,3,28.2
			c-0.3-2.5-3-1.7-3-0.3c0,2.7,1.8,4.6,4.1,4.8c0.4,0,0.5-0.1,0.6,0.2c0.1,0.1,0.2,1.1,0.2,1.3c0.4,2.2,1.6,4.5,3,6.3
			c2.3,2.9,2.7,1.5,1.8,4.2c-1,3.5,0,3.1,3.7,4.1c1,0.3,4.2,1.2,5.1,1.2c0.3,0,0.7-0.2,0.9-0.3c0.5-0.4,0.9-2.4,0.9-2.8h10.7
			c0.5,2.3,0.8,3.1,1.9,3.1h0c0.6,0,1.4-0.2,2.6-0.6c1.3-0.4,5.5-1.2,6.1-1.8c1-0.9,0-2.7-0.4-4.6c0.3-0.4,0.8-0.8,1.2-1.2
			c1.3-1.2,2.2-2.8,3-4.4c1.3,0,3.4,0.2,4-0.3c0.2-0.2,0.5-0.6,0.5-1v-9.6C50,24.5,47.4,25,45.4,25z M27.8,20.4h-5.6
			c-1.1,0-1.8-0.7-1.8-1.4c0-0.8,0.8-1.5,1.4-1.5h6.4C29.8,17.5,30.4,20.4,27.8,20.4z M37.4,26.7c0,1.6-2.8,1.9-2.8-0.1
			c0-1-0.3-3,1.3-3c0.5,0,0.8,0.1,1,0.4C37.6,24.6,37.4,25.3,37.4,26.7z"/>
		<path d="M29.9,7.8c-0.9,1.7-2.5,3-4.8,3c-3.2,0-5.5-2.5-5.5-5.1V4.9c0-0.7,0.3-1.4,0.6-1.9c0.6-1.1,1.4-1.9,2.5-2.5
			C23.3,0.2,24,0,24.7,0h0.6c0.7,0,1.5,0.2,2.1,0.5c0.1,0.1,0.1,0.1,0.3,0.1L28.2,1c0.7,0.6,1.3,1.3,1.7,2.1
			C30.6,4.5,30.6,6.4,29.9,7.8z"/>
	</g>
</g>
</svg>
