<?xml version="1.0" encoding="utf-8"?>
<!-- Generator: Adobe Illustrator 22.1.0, SVG Export Plug-In . SVG Version: 6.00 Build 0)  -->
<svg version="1.1" id="Layer_1" xmlns="http://www.w3.org/2000/svg" xmlns:xlink="http://www.w3.org/1999/xlink" x="0px" y="0px"
	 viewBox="0 0 50 50" style="enable-background:new 0 0 50 50;" xml:space="preserve">
<style type="text/css">
	.st0{fill:none;}
</style>
<path class="st0" d="M-18.6,17H-32c0.2-2.3,1.5-4.3,3.4-5.3l-1.1-2c0,0,0,0,0-0.1V9.6c0,0,0-0.1,0-0.1c0,0,0.1,0,0.1-0.1
	c0,0,0.1,0,0.1,0c0,0,0.1,0,0.1,0c0,0,0.1,0,0.1,0c0,0,0,0,0.1,0.1l1.1,2c0.9-0.4,1.9-0.6,2.9-0.6s2,0.2,2.9,0.6l1.1-2
	c0,0,0,0,0.1-0.1c0,0,0.1,0,0.1,0c0,0,0.1,0,0.1,0c0,0,0.1,0,0.1,0c0,0,0,0,0.1,0.1c0,0,0,0.1,0,0.1c0,0,0,0.1,0,0.1
	c0,0,0,0.1,0,0.1l-1.1,2C-20.1,12.7-18.8,14.7-18.6,17z"/>
<g>
	<path d="M37.3,19.4l4.2-7.3c0-0.1,0.1-0.2,0.1-0.3c0-0.1,0-0.3,0-0.4c0-0.1-0.1-0.2-0.1-0.3c-0.1-0.1-0.1-0.1-0.3-0.2
		c-0.1,0-0.2-0.1-0.3-0.1c-0.1,0-0.2,0-0.3,0c-0.1,0-0.2,0.1-0.3,0.2c-0.1,0.1-0.1,0.1-0.2,0.3l-4.2,7.4c-3.4-1.5-7-2.3-10.7-2.3
		s-7.3,0.8-10.7,2.3l-4.2-7.4c0-0.1-0.1-0.2-0.2-0.3c-0.1-0.1-0.2-0.1-0.3-0.2c-0.1,0-0.2,0-0.4,0c-0.1,0-0.2,0.1-0.3,0.1
		c-0.1,0.1-0.2,0.1-0.3,0.2c0,0.1-0.1,0.2-0.1,0.3v0.4c0,0.1,0.1,0.2,0.1,0.3l4.1,7.3C5.6,23.3,0.7,30.6,0,39.2h50
		C49.3,30.6,44.4,23.3,37.3,19.4z M15,31.4c-0.4,0.4-0.9,0.6-1.5,0.6c-0.4,0-0.8-0.1-1.2-0.4c-0.3-0.2-0.6-0.6-0.7-0.9
		c-0.2-0.4-0.2-0.8-0.1-1.2c0.1-0.4,0.3-0.8,0.6-1c0.3-0.3,0.7-0.5,1-0.6c0.4-0.1,0.8,0,1.2,0.1c0.4,0.2,0.7,0.4,0.9,0.8
		c0.2,0.3,0.3,0.7,0.3,1.2C15.6,30.5,15.4,31.1,15,31.4z M38,31.4c-0.4,0.4-0.9,0.6-1.5,0.6c-0.4,0-0.8-0.1-1.2-0.4
		c-0.3-0.2-0.6-0.6-0.7-0.9c-0.2-0.4-0.2-0.8-0.1-1.2c0.1-0.4,0.3-0.8,0.6-1c0.3-0.3,0.7-0.5,1-0.6c0.4-0.1,0.8,0,1.2,0.1
		c0.4,0.2,0.7,0.4,0.9,0.8c0.2,0.3,0.3,0.7,0.3,1.2C38.6,30.5,38.4,31.1,38,31.4z"/>
</g>
</svg>
