<?xml version="1.0" encoding="utf-8"?>
<!-- Generator: Adobe Illustrator 22.1.0, SVG Export Plug-In . SVG Version: 6.00 Build 0)  -->
<svg version="1.1" id="Layer_1" xmlns="http://www.w3.org/2000/svg" xmlns:xlink="http://www.w3.org/1999/xlink" x="0px" y="0px"
	 viewBox="0 0 50 50" style="enable-background:new 0 0 50 50;" xml:space="preserve">
<g>
	<path d="M8.9,29.3v11.9h8.8V29.3H8.9z M14.7,36.7c0,2-2.9,2.1-2.9-0.1c0-2.2-0.5-4.3,1.6-4.3C15.1,32.3,14.7,35.1,14.7,36.7z
		 M20.6,29.3v11.9h8.8V29.3H20.6z M26.4,36.8c0,1.9-2.8,1.8-2.8,0v-3.1c0-1.9,2.8-1.9,2.8,0V36.8z M32.3,29.3v11.9h8.8V29.3H32.3z
		 M38.2,36.4c0,0.4-0.1,0.8-0.3,1.1c-0.1,0.2-0.6,0.7-0.8,0.7c-0.8,0-1.8-0.1-1.8-1.5c0-2.5-0.5-4.4,1.6-4.4
		C38.5,32.3,38.2,35,38.2,36.4z M32.3,29.3v11.9h8.8V29.3H32.3z M38.2,36.4c0,0.4-0.1,0.8-0.3,1.1c-0.1,0.2-0.6,0.7-0.8,0.7
		c-0.8,0-1.8-0.1-1.8-1.5c0-2.5-0.5-4.4,1.6-4.4C38.5,32.3,38.2,35,38.2,36.4z M20.6,29.3v11.9h8.8V29.3H20.6z M26.4,36.8
		c0,1.9-2.8,1.8-2.8,0v-3.1c0-1.9,2.8-1.9,2.8,0V36.8z M8.9,29.3v11.9h8.8V29.3H8.9z M14.7,36.7c0,2-2.9,2.1-2.9-0.1
		c0-2.2-0.5-4.3,1.6-4.3C15.1,32.3,14.7,35.1,14.7,36.7z M8.9,29.3v11.9h8.8V29.3H8.9z M14.7,36.7c0,2-2.9,2.1-2.9-0.1
		c0-2.2-0.5-4.3,1.6-4.3C15.1,32.3,14.7,35.1,14.7,36.7z M20.6,29.3v11.9h8.8V29.3H20.6z M26.4,36.8c0,1.9-2.8,1.8-2.8,0v-3.1
		c0-1.9,2.8-1.9,2.8,0V36.8z M32.3,29.3v11.9h8.8V29.3H32.3z M38.2,36.4c0,0.4-0.1,0.8-0.3,1.1c-0.1,0.2-0.6,0.7-0.8,0.7
		c-0.8,0-1.8-0.1-1.8-1.5c0-2.5-0.5-4.4,1.6-4.4C38.5,32.3,38.2,35,38.2,36.4z M32.3,29.3v11.9h8.8V29.3H32.3z M38.2,36.4
		c0,0.4-0.1,0.8-0.3,1.1c-0.1,0.2-0.6,0.7-0.8,0.7c-0.8,0-1.8-0.1-1.8-1.5c0-2.5-0.5-4.4,1.6-4.4C38.5,32.3,38.2,35,38.2,36.4z
		 M20.6,29.3v11.9h8.8V29.3H20.6z M26.4,36.8c0,1.9-2.8,1.8-2.8,0v-3.1c0-1.9,2.8-1.9,2.8,0V36.8z M8.9,29.3v11.9h8.8V29.3H8.9z
		 M14.7,36.7c0,2-2.9,2.1-2.9-0.1c0-2.2-0.5-4.3,1.6-4.3C15.1,32.3,14.7,35.1,14.7,36.7z M8.9,29.3v11.9h8.8V29.3H8.9z M14.7,36.7
		c0,2-2.9,2.1-2.9-0.1c0-2.2-0.5-4.3,1.6-4.3C15.1,32.3,14.7,35.1,14.7,36.7z M20.6,29.3v11.9h8.8V29.3H20.6z M26.4,36.8
		c0,1.9-2.8,1.8-2.8,0v-3.1c0-1.9,2.8-1.9,2.8,0V36.8z M32.3,29.3v11.9h8.8V29.3H32.3z M38.2,36.4c0,0.4-0.1,0.8-0.3,1.1
		c-0.1,0.2-0.6,0.7-0.8,0.7c-0.8,0-1.8-0.1-1.8-1.5c0-2.5-0.5-4.4,1.6-4.4C38.5,32.3,38.2,35,38.2,36.4z M32.3,29.3v11.9h8.8V29.3
		H32.3z M38.2,36.4c0,0.4-0.1,0.8-0.3,1.1c-0.1,0.2-0.6,0.7-0.8,0.7c-0.8,0-1.8-0.1-1.8-1.5c0-2.5-0.5-4.4,1.6-4.4
		C38.5,32.3,38.2,35,38.2,36.4z M20.6,41.2h8.8V29.3h-8.8V41.2z M23.6,33.7c0-1.9,2.8-1.9,2.8,0v3.1c0,1.9-2.8,1.8-2.8,0V33.7z
		 M8.9,41.2h8.8V29.3H8.9V41.2z M13.4,32.3c1.7,0,1.3,2.8,1.3,4.4c0,2-2.9,2.1-2.9-0.1C11.8,34.4,11.3,32.3,13.4,32.3z M45.7,20.5
		H4.2c-0.6,0-1.2,0.2-1.6,0.4C1.2,21.5,0,23,0,24.6v21.3c0,1,0.6,2.1,1.3,2.8C1.8,49.3,3.1,50,4.2,50h41.5c2.2,0,4.3-2,4.3-4.1V24.6
		C50,22.5,47.9,20.5,45.7,20.5z M44,42.6c0,0.9-0.6,1.5-1.5,1.5h-35c-0.9,0-1.5-0.6-1.5-1.5V27.9c0-0.9,0.7-1.5,1.5-1.5h35
		c0.9,0,1.5,0.6,1.5,1.5V42.6z M32.3,41.2h8.8V29.3h-8.8V41.2z M36.9,32.3c1.6,0,1.3,2.7,1.3,4.1c0,0.4-0.1,0.8-0.3,1.1
		c-0.1,0.2-0.6,0.7-0.8,0.7c-0.8,0-1.8-0.1-1.8-1.5C35.3,34.2,34.8,32.3,36.9,32.3z M20.6,41.2h8.8V29.3h-8.8V41.2z M23.6,33.7
		c0-1.9,2.8-1.9,2.8,0v3.1c0,1.9-2.8,1.8-2.8,0V33.7z M8.9,41.2h8.8V29.3H8.9V41.2z M13.4,32.3c1.7,0,1.3,2.8,1.3,4.4
		c0,2-2.9,2.1-2.9-0.1C11.8,34.4,11.3,32.3,13.4,32.3z M8.9,29.3v11.9h8.8V29.3H8.9z M14.7,36.7c0,2-2.9,2.1-2.9-0.1
		c0-2.2-0.5-4.3,1.6-4.3C15.1,32.3,14.7,35.1,14.7,36.7z M20.6,29.3v11.9h8.8V29.3H20.6z M26.4,36.8c0,1.9-2.8,1.8-2.8,0v-3.1
		c0-1.9,2.8-1.9,2.8,0V36.8z M32.3,29.3v11.9h8.8V29.3H32.3z M38.2,36.4c0,0.4-0.1,0.8-0.3,1.1c-0.1,0.2-0.6,0.7-0.8,0.7
		c-0.8,0-1.8-0.1-1.8-1.5c0-2.5-0.5-4.4,1.6-4.4C38.5,32.3,38.2,35,38.2,36.4z M49.4,8.7C49,8.3,47.6,8.1,47,7.9
		c-1.6-0.4-1.3,0-2.5-2.1c-0.5-0.9-0.8-1.5-1.8-1.5c-1.7,0-2.2,3-3.1,3.3c-1.4,0.5-3.7,0.4-4,2c-0.2,1.2,2.2,3,2.3,3.7
		c0.2,0.7-0.6,3.2,0.1,4c0.3,0.3,0.5,0.5,1.1,0.5c1.1,0,3.1-1.2,3.4-1.2c0.4,0,1.2,0.4,1.5,0.6l1.6,0.6c1.2,0.3,2.2-0.6,2-1.9
		c-0.1-0.7-0.1-1.3-0.2-1.9c-0.1-0.9-0.1-0.9,1-2.1C49.4,10.9,50.4,9.9,49.4,8.7z M32.3,29.3v11.9h8.8V29.3H32.3z M38.2,36.4
		c0,0.4-0.1,0.8-0.3,1.1c-0.1,0.2-0.6,0.7-0.8,0.7c-0.8,0-1.8-0.1-1.8-1.5c0-2.5-0.5-4.4,1.6-4.4C38.5,32.3,38.2,35,38.2,36.4z
		 M31.5,4.8c-4.1-0.7-3-0.3-3.8-1.7c-0.2-0.4-0.4-0.7-0.6-1.2l-0.6-1.2c-0.3-0.5-0.7-0.7-1.1-0.8h-0.5c-0.4,0.1-0.9,0.3-1.1,0.7
		l-0.6,1.2c-0.2,0.4-1.1,2.3-1.3,2.4c-0.5,0.2-3.9,0.5-4.5,0.9c-0.4,0.2-0.7,0.7-0.7,1.3c0,0.9,1,1.6,1.5,2.2c0.3,0.3,0.5,0.6,0.9,1
		c1.2,1.2,0.9,0.8,0.3,4.3c-0.1,0.6-0.2,1.1,0.1,1.5c1,1.6,2.9,0.1,4.4-0.6c1.4-0.6,0.8-0.9,3.2,0.4c0.3,0.2,1.9,0.9,2.3,0.9
		c2.4,0,1.3-3.1,1-5.3c-0.1-0.6,0.4-0.8,0.7-1.1c0.4-0.4,0.5-0.6,0.9-1c0.5-0.5,1.6-1.3,1.6-2.2C33.5,5,32.3,4.9,31.5,4.8z
		 M20.6,29.3v11.9h8.8V29.3H20.6z M26.4,36.8c0,1.9-2.8,1.8-2.8,0v-3.1c0-1.9,2.8-1.9,2.8,0V36.8z M8.9,29.3v11.9h8.8V29.3H8.9z
		 M14.7,36.7c0,2-2.9,2.1-2.9-0.1c0-2.2-0.5-4.3,1.6-4.3C15.1,32.3,14.7,35.1,14.7,36.7z M12.2,13.3c0.1-1,4.8-4.1,0.7-5.1
		c-3.2-0.9-2.1-0.1-3.7-2.5C8.7,4.9,8.6,4.3,7.4,4.3c-1.1,0-1.6,1.2-2.3,2.4C4.3,7.9,4.5,7.6,1.9,8.2C1.2,8.4,0.3,8.6,0.3,9.8
		c0,1.5,2.5,2.5,2.3,4.1c-0.1,0.5-0.1,1.4-0.2,1.9c-0.2,1.4,0.8,2.3,2,2c0.6-0.2,2.8-1.2,3.1-1.2c0.7,0,4.8,2.9,4.9-0.4
		C12.4,15.5,12.1,13.8,12.2,13.3z M8.9,29.3v11.9h8.8V29.3H8.9z M14.7,36.7c0,2-2.9,2.1-2.9-0.1c0-2.2-0.5-4.3,1.6-4.3
		C15.1,32.3,14.7,35.1,14.7,36.7z M20.6,29.3v11.9h8.8V29.3H20.6z M26.4,36.8c0,1.9-2.8,1.8-2.8,0v-3.1c0-1.9,2.8-1.9,2.8,0V36.8z
		 M32.3,29.3v11.9h8.8V29.3H32.3z M38.2,36.4c0,0.4-0.1,0.8-0.3,1.1c-0.1,0.2-0.6,0.7-0.8,0.7c-0.8,0-1.8-0.1-1.8-1.5
		c0-2.5-0.5-4.4,1.6-4.4C38.5,32.3,38.2,35,38.2,36.4z M32.3,29.3v11.9h8.8V29.3H32.3z M38.2,36.4c0,0.4-0.1,0.8-0.3,1.1
		c-0.1,0.2-0.6,0.7-0.8,0.7c-0.8,0-1.8-0.1-1.8-1.5c0-2.5-0.5-4.4,1.6-4.4C38.5,32.3,38.2,35,38.2,36.4z M20.6,29.3v11.9h8.8V29.3
		H20.6z M26.4,36.8c0,1.9-2.8,1.8-2.8,0v-3.1c0-1.9,2.8-1.9,2.8,0V36.8z M8.9,29.3v11.9h8.8V29.3H8.9z M14.7,36.7
		c0,2-2.9,2.1-2.9-0.1c0-2.2-0.5-4.3,1.6-4.3C15.1,32.3,14.7,35.1,14.7,36.7z"/>
	<g>
		<path d="M45.7,20.5H4.2c-0.6,0-1.2,0.2-1.6,0.4C1.2,21.5,0,23,0,24.6v21.3c0,1,0.6,2.1,1.3,2.8C1.8,49.3,3.1,50,4.2,50h41.5
			c2.2,0,4.3-2,4.3-4.1V24.6C50,22.5,47.9,20.5,45.7,20.5z M44,42.6c0,0.9-0.6,1.5-1.5,1.5h-35c-0.9,0-1.5-0.6-1.5-1.5V27.9
			c0-0.9,0.7-1.5,1.5-1.5h35c0.9,0,1.5,0.6,1.5,1.5V42.6z"/>
		<path d="M33.5,6.4c0,1-1,1.7-1.6,2.2c-0.4,0.4-0.5,0.6-0.9,1c-0.3,0.3-0.8,0.5-0.7,1.1c0.2,2.2,1.4,5.3-1,5.3
			c-0.3,0-1.9-0.7-2.3-0.9c-2.4-1.3-1.8-1-3.2-0.4c-1.5,0.7-3.4,2.2-4.4,0.6c-0.3-0.5-0.2-0.9-0.1-1.5c0.5-3.5,0.9-3.1-0.3-4.3
			c-0.4-0.4-0.5-0.6-0.9-1c-0.5-0.5-1.5-1.2-1.5-2.2c0-0.6,0.3-1,0.7-1.3c0.6-0.4,4-0.7,4.5-0.9c0.2-0.1,1.1-2,1.3-2.4l0.6-1.2
			c0.2-0.4,0.6-0.6,1.1-0.7h0.5c0.4,0.1,0.8,0.3,1.1,0.8l0.6,1.2c0.2,0.4,0.4,0.8,0.6,1.2c0.8,1.4-0.3,1,3.8,1.7
			C32.3,4.9,33.5,5,33.5,6.4z"/>
		<path d="M12.4,16.2c-0.1,3.3-4.3,0.4-4.9,0.4c-0.3,0-2.5,1.1-3.1,1.2c-1.2,0.3-2.1-0.6-2-2c0.1-0.5,0.1-1.4,0.2-1.9
			c0.2-1.6-2.3-2.6-2.3-4.1c0-1.2,0.9-1.4,1.6-1.6c2.6-0.6,2.4-0.3,3.2-1.5c0.7-1.2,1.2-2.4,2.3-2.4c1.2,0,1.3,0.6,1.8,1.4
			c1.6,2.4,0.4,1.7,3.7,2.5c4.1,1.1-0.6,4.1-0.7,5.1C12.1,13.8,12.4,15.5,12.4,16.2z"/>
		<path d="M48.5,11.9c-1.1,1.1-1.1,1.2-1,2.1c0.1,0.7,0.1,1.3,0.2,1.9c0.2,1.3-0.8,2.2-2,1.9L44,17.2c-0.4-0.2-1.2-0.6-1.5-0.6
			c-0.3,0-2.3,1.2-3.4,1.2c-0.6,0-0.8-0.2-1.1-0.5c-0.7-0.9,0-3.3-0.1-4c-0.2-0.7-2.6-2.4-2.3-3.7c0.3-1.5,2.6-1.4,4-2
			c0.9-0.3,1.4-3.3,3.1-3.3c1,0,1.3,0.5,1.8,1.5c1.3,2.1,1,1.8,2.5,2.1c0.6,0.2,2,0.4,2.4,0.8C50.4,9.9,49.4,10.9,48.5,11.9z"/>
		<path d="M20.6,29.3v11.9h8.8V29.3H20.6z M26.4,36.8c0,1.9-2.8,1.8-2.8,0v-3.1c0-1.9,2.8-1.9,2.8,0V36.8z"/>
		<path d="M32.3,29.3v11.9h8.8V29.3H32.3z M38.2,36.4c0,0.4-0.1,0.8-0.3,1.1c-0.1,0.2-0.6,0.7-0.8,0.7c-0.8,0-1.8-0.1-1.8-1.5
			c0-2.5-0.5-4.4,1.6-4.4C38.5,32.3,38.2,35,38.2,36.4z"/>
		<path d="M8.9,29.3v11.9h8.8V29.3H8.9z M14.7,36.7c0,2-2.9,2.1-2.9-0.1c0-2.2-0.5-4.3,1.6-4.3C15.1,32.3,14.7,35.1,14.7,36.7z"/>
	</g>
</g>
</svg>
