<?xml version="1.0" encoding="utf-8"?>
<!-- Generator: Adobe Illustrator 22.1.0, SVG Export Plug-In . SVG Version: 6.00 Build 0)  -->
<svg version="1.1" id="Layer_1" xmlns="http://www.w3.org/2000/svg" xmlns:xlink="http://www.w3.org/1999/xlink" x="0px" y="0px"
	 viewBox="0 0 50 50" style="enable-background:new 0 0 50 50;" xml:space="preserve">
<g>
	<path d="M13.2,44.1c-2.5,0-4.6,0.1-6.6-1.8l-0.1-0.1c-1.3-1.4-2-2.7-2-4.8c-0.4,0.3-0.7,0.8-1.3,0.8c-0.5,0-0.9-0.1-1.3-0.4
		c-0.2-0.2-0.4-0.7-0.4-1c0-0.8,0.4-1,0.8-1.4l2.2-2.2c0.3-0.3,0.7-0.9,1.3-0.9c0.9,0,1.5,0.7,2.2,1.4l1.6,1.6
		c1.7,1.6,0.3,2.9-0.7,2.9c-0.9,0-0.8-0.3-1.4-0.7c0,1,0.4,1.7,0.8,2.3c0.4,0.4,1.3,1,1.9,1.2c0.9,0.2,1.9,0.1,3,0.1
		C15.4,41.1,15.2,44.1,13.2,44.1z"/>
	<path d="M15.3,12.6l1.4,3.6h-3.9c0.1-0.4,0.3-0.8,0.5-1.2c0.2-0.6,1.2-3.3,1.5-3.6C15,11.8,15.1,12.2,15.3,12.6z"/>
	<path d="M28.1,0H1.3C0.7,0,0,0.7,0,1.3V28c0,0.6,0.7,1.3,1.3,1.3h26.8c0.6,0,1.3-0.7,1.3-1.3V1.3C29.4,0.7,28.7,0,28.1,0z
		 M20.6,23.5c-1.3,0-1.6-1.6-2.2-3.1c-0.1-0.4-0.4-1-0.5-1.3h-6.3l-1,2.5c-0.3,0.8-0.6,1.9-1.7,1.9c-1.3,0-1.7-1.2-1.1-2.6l2.9-7.3
		c0.4-1,2.7-6.9,2.9-7.2c0.5-0.6,1.4-0.6,2-0.1c0.4,0.4,1.1,2.5,1.4,3l4.5,11.4c0.3,0.6,0.4,0.5,0.4,1.3
		C22,22.9,21.3,23.5,20.6,23.5z"/>
	<path d="M32.3,7.4c0-0.9,0.6-1.5,1.5-1.5c2.8,0,4.7-0.2,6.9,2c1,1,1.9,2.6,1.9,4.7c0.2-0.2,0.1-0.1,0.3-0.3
		c1.1-1.1,2.6-0.2,2.6,0.8c0,1-0.1,1-0.9,1.7c-2.3,2.3-3.2,3.9-4.9,2.1l-2.2-2.2c-1.7-1.7-0.2-2.9,0.5-2.9c1,0,1,0.3,1.6,0.7
		c-0.1-1.6-1.1-3-2.7-3.4C35,8.6,32.3,9.7,32.3,7.4z"/>
	<path d="M26.6,36.7h9.9c0,0.5-0.4,1.2-0.7,1.5c-0.9,1.3-2.5,2.3-4.3,2.3c-1.3,0-2.3-0.5-3.2-1.2C27.5,38.7,26.8,37.7,26.6,36.7z"/>
	<path d="M48.7,20.6H32.3v7.1c0,1.4-0.5,2.5-1.5,3.3c-1,0.9-1.9,1.2-3.7,1.2h-8.4c-0.5,0-1-0.1-1,0.3v15.9c0,0.9,0.6,1.6,1.5,1.6
		h29.5c0.6,0,1.3-0.7,1.3-1.3V21.9C50,21.3,49.3,20.6,48.7,20.6z M44,41.8c0,1.6-1.8,1.9-2.5,1c-0.2-0.3-0.4-0.8-0.4-1.3v-4.8
		c-2.8,0-1-0.1-2.5,2.5c-4.3,7.3-15,4.2-15-3.9c0-1,0.7-1.5,1.7-1.5h11.4c0-3.1-3-2.9-3.5-3.1c-0.5-0.2-0.8-0.6-0.8-1.3
		c0-2.6,4.2-1.2,5.6,0.3c0.8,0.9,1.6,2.4,1.6,4.1h1.5v-4c0-2.5,2.9-2.2,2.9-0.3V41.8z"/>
	<g>
		<path d="M28.1,0H1.3C0.7,0,0,0.7,0,1.3V28c0,0.6,0.7,1.3,1.3,1.3h26.8c0.6,0,1.3-0.7,1.3-1.3V1.3C29.4,0.7,28.7,0,28.1,0z
			 M20.6,23.5c-1.3,0-1.6-1.6-2.2-3.1c-0.1-0.4-0.4-1-0.5-1.3h-6.3l-1,2.5c-0.3,0.8-0.6,1.9-1.7,1.9c-1.3,0-1.7-1.2-1.1-2.6l2.9-7.3
			c0.4-1,2.7-6.9,2.9-7.2c0.5-0.6,1.4-0.6,2-0.1c0.4,0.4,1.1,2.5,1.4,3l4.5,11.4c0.3,0.6,0.4,0.5,0.4,1.3
			C22,22.9,21.3,23.5,20.6,23.5z"/>
		<path d="M48.7,20.6H32.3v7.1c0,1.4-0.5,2.5-1.5,3.3c-1,0.9-1.9,1.2-3.7,1.2h-8.4c-0.5,0-1-0.1-1,0.3v15.9c0,0.9,0.6,1.6,1.5,1.6
			h29.5c0.6,0,1.3-0.7,1.3-1.3V21.9C50,21.3,49.3,20.6,48.7,20.6z M44,41.8c0,1.6-1.8,1.9-2.5,1c-0.2-0.3-0.4-0.8-0.4-1.3v-4.8
			c-2.8,0-1-0.1-2.5,2.5c-4.3,7.3-15,4.2-15-3.9c0-1,0.7-1.5,1.7-1.5h11.4c0-3.1-3-2.9-3.5-3.1c-0.5-0.2-0.8-0.6-0.8-1.3
			c0-2.6,4.2-1.2,5.6,0.3c0.8,0.9,1.6,2.4,1.6,4.1h1.5v-4c0-2.5,2.9-2.2,2.9-0.3V41.8z"/>
		<path d="M45.5,13.1c0,1-0.1,1-0.9,1.7c-2.3,2.3-3.2,3.9-4.9,2.1l-2.2-2.2c-1.7-1.7-0.2-2.9,0.5-2.9c1,0,1,0.3,1.6,0.7
			c-0.1-1.6-1.1-3-2.7-3.4c-1.9-0.5-4.6,0.6-4.6-1.7c0-0.9,0.6-1.5,1.5-1.5c2.8,0,4.7-0.2,6.9,2c1,1,1.9,2.6,1.9,4.7
			c0.2-0.2,0.1-0.1,0.3-0.3C44,11.2,45.5,12.1,45.5,13.1z"/>
		<path d="M13.2,44.1c-2.5,0-4.6,0.1-6.6-1.8l-0.1-0.1c-1.3-1.4-2-2.7-2-4.8c-0.4,0.3-0.7,0.8-1.3,0.8c-0.5,0-0.9-0.1-1.3-0.4
			c-0.2-0.2-0.4-0.7-0.4-1c0-0.8,0.4-1,0.8-1.4l2.2-2.2c0.3-0.3,0.7-0.9,1.3-0.9c0.9,0,1.5,0.7,2.2,1.4l1.6,1.6
			c1.7,1.6,0.3,2.9-0.7,2.9c-0.9,0-0.8-0.3-1.4-0.7c0,1,0.4,1.7,0.8,2.3c0.4,0.4,1.3,1,1.9,1.2c0.9,0.2,1.9,0.1,3,0.1
			C15.4,41.1,15.2,44.1,13.2,44.1z"/>
		<path d="M36.5,36.7c0,0.5-0.4,1.2-0.7,1.5c-0.9,1.3-2.5,2.3-4.3,2.3c-1.3,0-2.3-0.5-3.2-1.2c-0.8-0.6-1.5-1.6-1.7-2.6H36.5z"/>
		<path d="M16.7,16.2h-3.9c0.1-0.4,0.3-0.8,0.5-1.2c0.2-0.6,1.2-3.3,1.5-3.6c0.2,0.4,0.3,0.8,0.5,1.2L16.7,16.2z"/>
	</g>
</g>
</svg>
