<?xml version="1.0" encoding="utf-8"?>
<!-- Generator: Adobe Illustrator 22.1.0, SVG Export Plug-In . SVG Version: 6.00 Build 0)  -->
<svg version="1.1" id="Layer_1" xmlns="http://www.w3.org/2000/svg" xmlns:xlink="http://www.w3.org/1999/xlink" x="0px" y="0px"
	 viewBox="0 0 50 50" style="enable-background:new 0 0 50 50;" xml:space="preserve">
<path d="M49.3,26.7L32.6,43.4c-1.5,1.5-4.1,0.4-4.1-1.7v-9.5H15.1c-1.3,0-2.4-1.1-2.4-2.4v-9.5c0-1.3,1.1-2.4,2.4-2.4h13.5V8.3
	c0-2.1,2.6-3.2,4.1-1.7l16.7,16.7C50.2,24.2,50.2,25.8,49.3,26.7z M19,42.9v-4c0-0.7-0.5-1.2-1.2-1.2H9.5c-1.8,0-3.2-1.4-3.2-3.2
	v-19c0-1.8,1.4-3.2,3.2-3.2h8.3c0.7,0,1.2-0.5,1.2-1.2v-4C19,6.5,18.5,6,17.9,6H9.5C4.3,6,0,10.2,0,15.5v19C0,39.8,4.3,44,9.5,44
	h8.3C18.5,44,19,43.5,19,42.9z"/>
</svg>
