<?xml version="1.0" encoding="utf-8"?>
<!-- Generator: Adobe Illustrator 22.1.0, SVG Export Plug-In . SVG Version: 6.00 Build 0)  -->
<svg version="1.1" id="Layer_1" xmlns="http://www.w3.org/2000/svg" xmlns:xlink="http://www.w3.org/1999/xlink" x="0px" y="0px"
	 viewBox="0 0 50 50" style="enable-background:new 0 0 50 50;" xml:space="preserve">
<g>
	<path d="M20.2,2.5h25.5c2.4,0,4.3,1.9,4.3,4.3l0,0c0,2.4-1.9,4.3-4.3,4.3H20.2c-2.4,0-4.3-1.9-4.3-4.3l0,0
		C15.9,4.4,17.8,2.5,20.2,2.5z"/>
	<path d="M4.3,20.7h41.4c2.4,0,4.3,1.9,4.3,4.3l0,0c0,2.4-1.9,4.3-4.3,4.3H4.3C1.9,29.3,0,27.4,0,25l0,0C0,22.6,1.9,20.7,4.3,20.7z"
		/>
	<path d="M11.1,38.9h34.5c2.4,0,4.3,1.9,4.3,4.3l0,0c0,2.4-1.9,4.3-4.3,4.3H11.1c-2.4,0-4.3-1.9-4.3-4.3l0,0
		C6.8,40.8,8.8,38.9,11.1,38.9z"/>
</g>
</svg>
