<?xml version="1.0" encoding="utf-8"?>
<!-- Generator: Adobe Illustrator 22.1.0, SVG Export Plug-In . SVG Version: 6.00 Build 0)  -->
<svg version="1.1" id="Layer_1" xmlns="http://www.w3.org/2000/svg" xmlns:xlink="http://www.w3.org/1999/xlink" x="0px" y="0px"
	 viewBox="0 0 50 50" style="enable-background:new 0 0 50 50;" xml:space="preserve">
<g>
	<path d="M26.8,18.8H4.4C2,18.8,0,20.8,0,23v27h27.1c1.1,0,2.3-0.7,2.8-1.3c0.6-0.6,1.3-1.8,1.3-2.9V23.2
		C31.2,20.8,29.2,18.8,26.8,18.8z M10.9,25.9c1,0,2.1,1.3,1.1,2.4c-1,1.2-2.5,0-2.5-0.9C9.5,26.7,10.2,25.9,10.9,25.9z M10.8,42.8
		C9.2,42.8,9,40,10.9,40C12.8,40,13,42.8,10.8,42.8z M10,35.4c-0.2-0.2-0.5-0.7-0.5-1c0-1.2,1.5-1.9,2.4-1.1
		C13.4,34.7,11.3,36.6,10,35.4z M18.9,41.4c0-1.7,2.8-2.1,2.8,0.2C21.7,43.1,18.9,43.3,18.9,41.4z M18.9,34.5c0-2.1,2.8-2,2.8-0.1
		C21.7,36.4,18.9,36,18.9,34.5z M21.3,28.3c-1,1.1-2.4,0.1-2.4-0.9c0-1.9,2.8-2.1,2.8,0C21.7,27.9,21.6,28.1,21.3,28.3z"/>
	<path d="M49.4,18.4c-0.7-1.2-7.6-7.9-8.7-9c-1-1-7.9-8.1-8.9-8.8c-0.6-0.4-1.3-0.6-2-0.6h-0.7c-1,0.1-2,0.5-2.8,1.3
		C24.8,2.8,12,15.4,11.7,15.9h11.2c4.6,0,6.6-0.2,9,2.2c2.4,2.4,2.2,4.4,2.2,9v11.2c0.5-0.3,13.2-13.2,14.7-14.6
		c0.8-0.8,1.2-1.8,1.2-2.9v-0.5C50,19.6,49.8,19,49.4,18.4z M28.3,11.9c0-2.4,2.8-1.8,2.8-0.3C31.1,13.7,28.3,13.5,28.3,11.9z
		 M38.2,21.7c-0.9,0-1.4-0.8-1.4-1.4c0-0.7,0.7-1.4,1.5-1.4C40,18.9,40.3,21.7,38.2,21.7z"/>
	<g>
		<path d="M26.8,18.8H4.4C2,18.8,0,20.8,0,23v22.9c0,0.5,0.2,1.2,0.4,1.6c0.4,0.9,1.2,1.6,2,2.1C2.9,49.8,3.5,50,4.1,50h23
			c1.1,0,2.3-0.7,2.8-1.3c0.6-0.6,1.3-1.8,1.3-2.9V23.2C31.2,20.8,29.2,18.8,26.8,18.8z M10.9,25.9c1,0,2.1,1.3,1.1,2.4
			c-1,1.2-2.5,0-2.5-0.9C9.5,26.7,10.2,25.9,10.9,25.9z M10.8,42.8C9.2,42.8,9,40,10.9,40C12.8,40,13,42.8,10.8,42.8z M10,35.4
			c-0.2-0.2-0.5-0.7-0.5-1c0-1.2,1.5-1.9,2.4-1.1C13.4,34.7,11.3,36.6,10,35.4z M18.9,41.4c0-1.7,2.8-2.1,2.8,0.2
			C21.7,43.1,18.9,43.3,18.9,41.4z M18.9,34.5c0-2.1,2.8-2,2.8-0.1C21.7,36.4,18.9,36,18.9,34.5z M21.3,28.3c-1,1.1-2.4,0.1-2.4-0.9
			c0-1.9,2.8-2.1,2.8,0C21.7,27.9,21.6,28.1,21.3,28.3z"/>
		<path d="M49.4,18.4c-0.7-1.2-7.6-7.9-8.7-9c-1-1-7.9-8.1-8.9-8.8c-0.6-0.4-1.3-0.6-2-0.6h-0.7c-1,0.1-2,0.5-2.8,1.3
			C24.8,2.8,12,15.4,11.7,15.9h11.2c4.6,0,6.6-0.2,9,2.2c2.4,2.4,2.2,4.4,2.2,9v11.2c0.5-0.3,13.2-13.2,14.7-14.6
			c0.8-0.8,1.2-1.8,1.2-2.9v-0.5C50,19.6,49.8,19,49.4,18.4z M28.3,11.9c0-2.4,2.8-1.8,2.8-0.3C31.1,13.7,28.3,13.5,28.3,11.9z
			 M38.2,21.7c-0.9,0-1.4-0.8-1.4-1.4c0-0.7,0.7-1.4,1.5-1.4C40,18.9,40.3,21.7,38.2,21.7z"/>
	</g>
</g>
</svg>
