<?xml version="1.0" encoding="utf-8"?>
<!-- Generator: Adobe Illustrator 22.1.0, SVG Export Plug-In . SVG Version: 6.00 Build 0)  -->
<svg version="1.1" id="Layer_1" xmlns="http://www.w3.org/2000/svg" xmlns:xlink="http://www.w3.org/1999/xlink" x="0px" y="0px"
	 viewBox="0 0 122 36" style="enable-background:new 0 0 122 36;" xml:space="preserve">
<g>
	<path d="M15.5,17.8L1.2,32.1c-0.3-0.2-0.5-0.4-0.6-0.7c-0.1-0.3-0.2-0.6-0.2-0.8V5c0-0.3,0.1-0.6,0.2-0.9c0.2-0.3,0.4-0.5,0.6-0.7
		L15.5,17.8z"/>
	<path d="M15.8,18.1l4.7,4.7l-5.4,2.9L3,32.2c-0.2,0.1-0.4,0.2-0.7,0.2c-0.1,0-0.1,0-0.2,0c-0.2,0-0.4,0-0.5-0.1L15.8,18.1z"/>
	<path d="M15.8,17.5L1.6,3.3c0.1,0,0.3-0.1,0.4-0.1h0.3c0.2,0,0.5,0.1,0.7,0.2l12,6.5l5.4,2.9L15.8,17.5z"/>
	<path d="M27.7,17.8c0,0.6-0.3,1.3-1,1.6l-5.8,3.1l-4.8-4.8l4.8-4.8l5.8,3.1C27.4,16.5,27.7,17.1,27.7,17.8z"/>
	<g>
		<path d="M27.7,17.8c0,0.6-0.3,1.3-1,1.6l-5.8,3.1l-4.8-4.8l4.8-4.8l5.8,3.1C27.4,16.5,27.7,17.1,27.7,17.8z"/>
		<path d="M15.5,17.8L1.2,32.1c-0.3-0.2-0.5-0.4-0.6-0.7c-0.1-0.3-0.2-0.6-0.2-0.8V5c0-0.3,0.1-0.6,0.2-0.9c0.2-0.3,0.4-0.5,0.6-0.7
			L15.5,17.8z"/>
		<path d="M20.5,12.8l-4.7,4.7L1.6,3.3c0.1,0,0.3-0.1,0.4-0.1h0.3c0.2,0,0.5,0.1,0.7,0.2l12,6.5L20.5,12.8z"/>
		<path d="M20.5,22.8l-5.4,2.9L3,32.2c-0.2,0.1-0.4,0.2-0.7,0.2c-0.1,0-0.1,0-0.2,0c-0.2,0-0.4,0-0.5-0.1l14.2-14.2L20.5,22.8z"/>
	</g>
	<path d="M41.6,21.4c-0.3-0.5-0.6-0.9-1.1-1.2c-0.5-0.3-1-0.4-1.6-0.4c-0.7,0-1.3,0.2-1.8,0.5c-0.5,0.3-1,0.7-1.3,1.3
		c-0.3,0.6-0.4,1.2-0.4,2s0.1,1.4,0.4,2c0.3,0.6,0.7,1,1.3,1.3c0.5,0.3,1.1,0.5,1.8,0.5c0.9,0,1.7-0.3,2.2-0.8
		c0.6-0.5,0.9-1.2,1.1-2.1h-3.9v-1.4H44v1.3c-0.1,0.8-0.4,1.5-0.9,2.2c-0.5,0.7-1.1,1.2-1.8,1.6c-0.7,0.4-1.5,0.6-2.4,0.6
		c-1,0-1.9-0.2-2.7-0.7c-0.8-0.5-1.4-1.1-1.9-1.9c-0.5-0.8-0.7-1.7-0.7-2.7s0.2-1.9,0.7-2.7c0.5-0.8,1.1-1.4,1.9-1.9
		c0.8-0.5,1.7-0.7,2.7-0.7c1.1,0,2.1,0.3,2.9,0.8c0.9,0.5,1.5,1.3,1.9,2.3H41.6z M49.2,28.9c-0.8,0-1.5-0.2-2.1-0.5
		c-0.6-0.4-1.1-0.9-1.5-1.5c-0.4-0.6-0.5-1.4-0.5-2.2c0-0.8,0.2-1.6,0.5-2.2c0.4-0.6,0.9-1.1,1.5-1.5c0.6-0.3,1.3-0.5,2.1-0.5
		c0.8,0,1.5,0.2,2.1,0.5c0.6,0.3,1.1,0.8,1.5,1.5c0.4,0.6,0.5,1.4,0.5,2.2c0,0.8-0.2,1.6-0.6,2.2c-0.4,0.6-0.9,1.1-1.5,1.5
		C50.7,28.7,49.9,28.9,49.2,28.9z M49.2,27.4c0.4,0,0.8-0.1,1.2-0.3c0.4-0.2,0.7-0.5,0.9-0.9s0.4-0.9,0.4-1.5s-0.1-1.1-0.3-1.5
		c-0.2-0.4-0.5-0.7-0.9-0.9c-0.4-0.2-0.8-0.3-1.2-0.3c-0.4,0-0.8,0.1-1.2,0.3c-0.4,0.2-0.7,0.5-0.9,0.9c-0.2,0.4-0.3,0.9-0.3,1.5
		c0,0.9,0.2,1.6,0.7,2C47.9,27.2,48.5,27.4,49.2,27.4z M58.6,28.9c-0.8,0-1.5-0.2-2.1-0.5c-0.6-0.4-1.1-0.9-1.5-1.5
		c-0.4-0.6-0.5-1.4-0.5-2.2c0-0.8,0.2-1.6,0.5-2.2c0.4-0.6,0.9-1.1,1.5-1.5c0.6-0.3,1.3-0.5,2.1-0.5c0.8,0,1.5,0.2,2.1,0.5
		c0.6,0.3,1.1,0.8,1.5,1.5c0.4,0.6,0.5,1.4,0.5,2.2c0,0.8-0.2,1.6-0.6,2.2c-0.4,0.6-0.9,1.1-1.5,1.5C60.1,28.7,59.4,28.9,58.6,28.9z
		 M58.6,27.4c0.4,0,0.8-0.1,1.2-0.3c0.4-0.2,0.7-0.5,0.9-0.9s0.4-0.9,0.4-1.5s-0.1-1.1-0.3-1.5c-0.2-0.4-0.5-0.7-0.9-0.9
		c-0.4-0.2-0.8-0.3-1.2-0.3c-0.4,0-0.8,0.1-1.2,0.3c-0.4,0.2-0.7,0.5-0.9,0.9c-0.2,0.4-0.3,0.9-0.3,1.5c0,0.9,0.2,1.6,0.7,2
		C57.4,27.2,57.9,27.4,58.6,27.4z M67.8,20.5c0.6,0,1.2,0.1,1.7,0.4c0.5,0.2,0.9,0.6,1.2,0.9v-1.2h1.7v8.3c0,0.8-0.2,1.4-0.5,2
		c-0.3,0.6-0.8,1.1-1.4,1.4c-0.6,0.3-1.3,0.5-2.1,0.5c-1.1,0-2-0.3-2.8-0.8c-0.7-0.5-1.1-1.2-1.2-2.1h1.7c0.1,0.4,0.4,0.8,0.8,1
		c0.4,0.3,0.9,0.4,1.5,0.4c0.7,0,1.2-0.2,1.6-0.6c0.4-0.4,0.6-1,0.6-1.8v-1.4c-0.3,0.4-0.7,0.7-1.2,1c-0.5,0.3-1,0.4-1.7,0.4
		c-0.7,0-1.4-0.2-2-0.5c-0.6-0.4-1-0.9-1.4-1.5c-0.3-0.7-0.5-1.4-0.5-2.2c0-0.8,0.2-1.5,0.5-2.2c0.3-0.6,0.8-1.1,1.4-1.5
		C66.5,20.6,67.1,20.5,67.8,20.5z M70.7,24.7c0-0.6-0.1-1.1-0.4-1.5c-0.2-0.4-0.5-0.7-0.9-0.9c-0.4-0.2-0.8-0.3-1.2-0.3
		c-0.4,0-0.8,0.1-1.2,0.3c-0.4,0.2-0.7,0.5-0.9,0.9c-0.2,0.4-0.3,0.9-0.3,1.5c0,0.6,0.1,1.1,0.3,1.5c0.2,0.4,0.5,0.8,0.9,1
		c0.4,0.2,0.8,0.3,1.2,0.3c0.4,0,0.8-0.1,1.2-0.3c0.4-0.2,0.7-0.5,0.9-0.9C70.6,25.7,70.7,25.2,70.7,24.7z M76.3,17.8v11h-1.7v-11
		H76.3z M86,24.5c0,0.3,0,0.6-0.1,0.8h-6.2c0,0.7,0.3,1.2,0.7,1.6c0.4,0.4,1,0.6,1.6,0.6c0.9,0,1.6-0.4,1.9-1.1h1.8
		c-0.2,0.8-0.7,1.4-1.4,1.9c-0.6,0.5-1.4,0.7-2.4,0.7c-0.8,0-1.5-0.2-2.1-0.5c-0.6-0.4-1.1-0.9-1.5-1.5c-0.3-0.6-0.5-1.4-0.5-2.2
		c0-0.8,0.2-1.6,0.5-2.2c0.3-0.6,0.8-1.1,1.4-1.5c0.6-0.3,1.3-0.5,2.1-0.5c0.8,0,1.5,0.2,2.1,0.5c0.6,0.3,1.1,0.8,1.4,1.4
		C85.8,23,86,23.7,86,24.5z M84.2,23.9c0-0.6-0.2-1.1-0.7-1.5c-0.4-0.4-1-0.6-1.6-0.6c-0.6,0-1.1,0.2-1.5,0.6
		c-0.4,0.4-0.7,0.9-0.7,1.5H84.2z M98.7,21.5c0,0.5-0.1,1-0.4,1.5c-0.2,0.5-0.6,0.8-1.2,1.1c-0.5,0.3-1.2,0.4-2.1,0.4h-1.9v4.2h-1.7
		V18.5h3.6c0.8,0,1.5,0.1,2,0.4c0.6,0.3,1,0.6,1.2,1.1C98.6,20.4,98.7,21,98.7,21.5z M95.1,23.2c0.6,0,1.1-0.1,1.4-0.4
		c0.3-0.3,0.5-0.7,0.5-1.2c0-1.1-0.6-1.7-1.9-1.7h-1.9v3.4H95.1z M102,17.8v11h-1.7v-11H102z M103.7,24.6c0-0.8,0.2-1.5,0.5-2.2
		c0.3-0.6,0.8-1.1,1.4-1.5c0.6-0.4,1.2-0.5,2-0.5c0.6,0,1.2,0.1,1.7,0.4c0.5,0.2,0.9,0.6,1.2,0.9v-1.2h1.7v8.2h-1.7v-1.2
		c-0.3,0.4-0.7,0.7-1.2,1c-0.5,0.3-1.1,0.4-1.7,0.4c-0.7,0-1.3-0.2-1.9-0.5c-0.6-0.4-1-0.9-1.4-1.5
		C103.9,26.2,103.7,25.5,103.7,24.6z M110.4,24.7c0-0.6-0.1-1.1-0.4-1.5c-0.2-0.4-0.5-0.7-0.9-0.9c-0.4-0.2-0.8-0.3-1.2-0.3
		c-0.4,0-0.8,0.1-1.2,0.3c-0.4,0.2-0.7,0.5-0.9,0.9c-0.2,0.4-0.3,0.9-0.3,1.5c0,0.6,0.1,1.1,0.3,1.5c0.2,0.4,0.5,0.8,0.9,1
		c0.4,0.2,0.8,0.3,1.2,0.3c0.4,0,0.8-0.1,1.2-0.3c0.4-0.2,0.7-0.5,0.9-0.9C110.3,25.7,110.4,25.2,110.4,24.7z M121.7,20.6l-5,12
		h-1.8l1.7-4l-3.2-8h1.9l2.3,6.2l2.4-6.2H121.7z"/>
	<path d="M39.7,7.3c-0.2-0.5-0.5-0.9-1-1.1c-0.4-0.3-0.9-0.4-1.5-0.4c-0.6,0-1,0.1-1.5,0.4c-0.4,0.3-0.8,0.6-1,1.1
		c-0.3,0.5-0.4,1-0.4,1.6c0,0.6,0.1,1.2,0.4,1.6c0.3,0.5,0.6,0.8,1,1.1c0.4,0.3,0.9,0.4,1.5,0.4c0.5,0,1-0.1,1.4-0.3
		c0.4-0.2,0.7-0.5,1-1c0.3-0.4,0.4-0.9,0.4-1.5h-3.1V8.6h3.9v0.5c0,0.7-0.2,1.2-0.5,1.8c-0.3,0.5-0.7,0.9-1.3,1.2
		c-0.5,0.3-1.1,0.5-1.8,0.5c-0.7,0-1.3-0.2-1.9-0.5c-0.6-0.3-1-0.8-1.3-1.3c-0.3-0.6-0.5-1.2-0.5-2c0-0.7,0.2-1.4,0.5-2
		c0.3-0.6,0.8-1,1.3-1.3c0.6-0.3,1.2-0.5,1.9-0.5c0.8,0,1.5,0.2,2.1,0.6c0.6,0.4,1,0.9,1.3,1.7H39.7z M42.9,5.8v2.8h2.8v0.6h-2.8
		v2.8H46v0.6h-3.9V5.1H46v0.6H42.9z M51.8,5.1v0.6h-2.1v6.8H49V5.8H47V5.1H51.8z M56.7,5.1v7.4h-0.7V5.1H56.7z M62.7,5.1v0.6h-2.1
		v6.8h-0.7V5.8h-2.1V5.1H62.7z M70.1,12.6c-0.7,0-1.3-0.2-1.9-0.5c-0.6-0.3-1-0.8-1.3-1.3c-0.3-0.6-0.5-1.2-0.5-2
		c0-0.7,0.2-1.4,0.5-2c0.3-0.6,0.8-1,1.3-1.3c0.6-0.3,1.2-0.5,1.9-0.5c0.7,0,1.3,0.2,1.9,0.5c0.6,0.3,1,0.8,1.3,1.3
		c0.3,0.6,0.5,1.2,0.5,2c0,0.7-0.2,1.4-0.5,2c-0.3,0.6-0.8,1-1.3,1.3C71.4,12.5,70.8,12.6,70.1,12.6z M70.1,12c0.6,0,1-0.1,1.5-0.4
		c0.4-0.3,0.8-0.6,1-1.1c0.3-0.5,0.4-1,0.4-1.7c0-0.6-0.1-1.2-0.4-1.7c-0.3-0.5-0.6-0.8-1-1.1c-0.4-0.3-0.9-0.4-1.5-0.4
		c-0.6,0-1,0.1-1.5,0.4c-0.4,0.3-0.8,0.6-1,1.1c-0.3,0.5-0.4,1-0.4,1.7c0,0.6,0.1,1.2,0.4,1.7c0.3,0.5,0.6,0.8,1,1.1
		C69,11.9,69.5,12,70.1,12z M80.7,12.6h-0.7l-4.1-6.2v6.2h-0.7V5.1h0.7l4.1,6.2V5.1h0.7V12.6z"/>
</g>
</svg>
