<?xml version="1.0" encoding="utf-8"?>
<!-- Generator: Adobe Illustrator 22.1.0, SVG Export Plug-In . SVG Version: 6.00 Build 0)  -->
<svg version="1.1" id="Layer_1" xmlns="http://www.w3.org/2000/svg" xmlns:xlink="http://www.w3.org/1999/xlink" x="0px" y="0px"
	 viewBox="0 0 50 50" style="enable-background:new 0 0 50 50;" xml:space="preserve">
<g>
	<path d="M19.7,4.1v15.2c0,0.6,0.2,1.3,0.4,1.7c0.6,1.3,2.2,2.5,4,2.5h19.4c1.5,0,2.5-0.5,3.2-1.3c1.5-1.5,1.4-2.5,1.4-4.4
		c0-0.5-0.8-0.3-1.7-0.3c-3.2,0-5.6,0.4-7.6-2.7c-2.5-3.8,0.1-8.9,5.1-8.9h4.2c0-1.8,0.1-3.1-1.2-4.6C46.3,0.7,45.1,0,44,0H23.8
		C21.7,0,19.7,2,19.7,4.1z"/>
	<path d="M0,30.6v15.3C0,48,2,50,4.1,50h20c1.8,0,3.3-1.2,3.9-2.8c0.4-1,0.4-1.7,0.4-2.8c0-0.5-0.8-0.3-1.7-0.3
		c-2.1,0-3.8,0.2-5.5-0.7c-4.5-2.3-3.7-8.4,0-10.3c1.7-0.9,4.2-0.7,6.5-0.6c0.9,0,0.8,0.1,0.8-1.2c0-2.7-1.8-4.8-4.5-4.8H4.4
		c-1.7,0-3.2,1-3.9,2.4C0.3,29.4,0,29.9,0,30.6z"/>
	<path d="M7.9,11.7v9.8c0,2.1,3,2,3-0.1v-8.2h4.5c1.6,0,1.9-3-0.2-3H9.4C8.5,10.2,7.9,10.8,7.9,11.7z"/>
	<path d="M39.1,28.6v8.2h-4.5c-1.6,0-1.9,3,0.2,3h5.8c0.5,0,0.8-0.2,1.1-0.4c0.3-0.2,0.4-0.6,0.4-1.1v-9.8c0-1.4-1.7-2-2.6-1
		C39.3,27.7,39.1,28.1,39.1,28.6z"/>
	<path d="M21,38v0.6c0,1.3,1.3,2.6,2.6,2.6H29c0.6,0,1.3-0.7,1.3-1.3c0-5.3,0.7-4.6-6.6-4.6C22.4,35.3,21,36.7,21,38z"/>
	<path d="M40.7,11.6c0,1,0.2,1.6,0.9,2.3c0.4,0.4,1.1,0.8,2,0.8h4.9c1,0,1.4-0.6,1.5-1.5v-3.1c0-0.7-0.6-1.3-1.3-1.3h-5.4
		c-0.7,0-1.5,0.5-1.8,0.9C41.1,10.1,40.7,10.8,40.7,11.6z"/>
</g>
</svg>
