<?xml version="1.0" encoding="utf-8"?>
<!-- Generator: Adobe Illustrator 22.1.0, SVG Export Plug-In . SVG Version: 6.00 Build 0)  -->
<svg version="1.1" id="Layer_1" xmlns="http://www.w3.org/2000/svg" xmlns:xlink="http://www.w3.org/1999/xlink" x="0px" y="0px"
	 viewBox="0 0 50 50" style="enable-background:new 0 0 50 50;" xml:space="preserve">
<g>
	<path d="M45.7,21.9c0-0.6-0.6-2.3-0.9-2.9c-0.6-1.3-1.6-2.9-2.6-3.9c-0.2-0.2-0.4-0.4-0.7-0.6c-1.2-1.1-1-0.1-1-2.9
		c0-1.2,0.3-2.8-0.5-3.4c-1-0.7-2.7-0.3-3.6,0C35.6,8.6,35.7,8.5,35,9l-1.5,1.3c-0.5,0.5-1.4,1.7-1.5,2.3c-3.7,0-2.7-0.5-6,3.9
		c-0.1,0.2-0.2,0.3-0.3,0.5c-1.1,1.6-1.1,0.9-0.6,3.6c0.1,0.6,0.3,1.3,0.4,2c0.3,1.3,0.5,2.7,0.8,4c0.4,1.9-0.3,2.1-1.3,3.1
		c-0.3,0.3-2.3,2.4-2.4,2.4c-0.3,0-0.3,0-0.5-0.1c-0.3-1.3,0-4.5-0.1-5.3c-0.2-0.8-3-5.5-3-6.5c0-1,1.5-5.4,1.3-6.2
		c-0.4-2-2.9-1.1-4.3-0.7c-3.3,0.8-6.4,3.3-8.4,6.1c-1.6,2.3-2.3,4.6-2.6,7.4c-0.1,0.6,0.1,0.7-0.6,0.7c-0.3,0-0.7-0.2-0.9-0.4
		c-0.4-0.5-0.1-2.2-1.7-2.2c-0.9,0-1.4,0.6-1.5,1.4v0.6c0.1,0.8,0.6,1.8,1.5,2.7c0.9,0.9,2.1,1.1,3.3,1C5,30.7,5,31,5.1,31.4l0.8,3
		c0.5,1.3,1,2.3,1.7,3.3l3.5,4c0.3,0.3,1.1,1,1.5,1.1c0,1.2,0,2.3,0,3.5c0,1.2,0.4,2,1.6,2h6.1c2.1,0,1.6-2.6,1.6-4.7h5.6
		c0,5.5-0.8,4.7,7.6,4.7c2.1,0,1.6-2.6,1.6-4.8c2.6-0.6,4.1-1,6.1-3.1c1.5-1.5,2.9-3.9,3.1-6.1c1.2,0,2.8,0.2,3.5-0.5
		c0.2-0.2,0.5-0.6,0.5-0.9v-9.5C49.8,21.5,47.5,21.9,45.7,21.9z M39.1,26.3c-0.8,0-1.5-0.6-1.5-1.3c0-0.9-0.2-2.1,0.4-2.6
		c0.9-0.9,2.4-0.4,2.4,0.9C40.4,24.5,40.7,26.3,39.1,26.3z"/>
	<path d="M23.5,3v3.4c0,1.8,3,1.8,3,0V3C26.5,1.2,23.5,1.2,23.5,3z"/>
	<path d="M18.5,9.3c1,0,1.7-0.4,1.7-1.5c0-1-2.2-3-2.9-3c-1.6,0-2.1,1.6-1.2,2.5C16.6,7.8,17.9,9.3,18.5,9.3z"/>
</g>
</svg>
